<svg width="76" height="64" viewBox="0 0 76 64" fill="none" xmlns="http://www.w3.org/2000/svg">
<path d="M54.5229 47.5172C53.6677 48.2372 52.5079 48.6418 51.2986 48.6418C50.0892 48.6418 48.9294 48.2372 48.0743 47.5172L38.0005 37.8212L27.9267 47.514C27.5045 47.8753 27.0016 48.1627 26.4468 48.3595C25.8921 48.5564 25.2966 48.6588 24.6947 48.6608C24.0927 48.6629 23.4962 48.5646 22.9396 48.3716C22.383 48.1785 21.8773 47.8946 21.4517 47.5362C21.0261 47.1777 20.6889 46.7519 20.4597 46.2832C20.2304 45.8144 20.1137 45.3121 20.1161 44.8052C20.1186 44.2983 20.2402 43.7969 20.474 43.3297C20.7077 42.8626 21.049 42.4391 21.4781 42.0836L31.9585 32.0036L21.4743 21.9172C21.0452 21.5617 20.7039 21.1381 20.4702 20.671C20.2364 20.2039 20.1148 19.7024 20.1123 19.1955C20.1099 18.6886 20.2266 18.1863 20.4559 17.7176C20.6851 17.2489 21.0223 16.823 21.4479 16.4646C21.8735 16.1061 22.3792 15.8222 22.9358 15.6292C23.4924 15.4361 24.0889 15.3378 24.6909 15.3399C25.2928 15.3419 25.8883 15.4443 26.443 15.6412C26.9978 15.838 27.5007 16.1254 27.9229 16.4868L38.0005 26.186L48.0743 16.4868C48.4964 16.1254 48.9994 15.838 49.5541 15.6412C50.1088 15.4443 50.7043 15.3419 51.3063 15.3399C51.9082 15.3378 52.5047 15.4361 53.0613 15.6292C53.6179 15.8222 54.1236 16.1061 54.5492 16.4646C54.9749 16.823 55.312 17.2489 55.5413 17.7176C55.7705 18.1863 55.8872 18.6886 55.8848 19.1955C55.8823 19.7024 55.7607 20.2039 55.527 20.671C55.2932 21.1381 54.952 21.5617 54.5229 21.9172L44.0425 32.0036L54.5229 42.0836C54.9468 42.4402 55.2832 42.8637 55.5127 43.3299C55.7421 43.796 55.8602 44.2957 55.8602 44.8004C55.8602 45.305 55.7421 45.8047 55.5127 46.2708C55.2832 46.737 54.9468 47.1605 54.5229 47.5172Z" fill="white"/>
</svg>
