<svg width="103" height="103" viewBox="0 0 103 103" fill="none" xmlns="http://www.w3.org/2000/svg">
<circle cx="51.5" cy="51.5" r="51.5" fill="#4700FF" fill-opacity="0.67"/>
<circle cx="51" cy="51" r="36" fill="#4700FF" fill-opacity="0.65"/>
<path fill-rule="evenodd" clip-rule="evenodd" d="M39.6369 49.5582L44.1925 56.0363C44.3629 56.2621 44.4996 56.5343 44.5944 56.8369C44.6892 57.1394 44.7401 57.466 44.7442 57.7971C44.7484 58.1283 44.7055 58.4572 44.6183 58.7643C44.5311 59.0714 44.4012 59.3503 44.2365 59.5845C44.0718 59.8187 43.8757 60.0034 43.6597 60.1274C43.4437 60.2514 43.2124 60.3123 42.9795 60.3065C42.7467 60.3007 42.517 60.2282 42.3043 60.0934C42.0915 59.9586 41.9 59.7642 41.7413 59.5219L34.2256 48.8348L33 47.0919L34.2256 45.3491L41.7413 34.6619C42.07 34.2263 42.5049 33.9891 42.9542 34.0004C43.4035 34.0117 43.8322 34.2705 44.15 34.7224C44.4678 35.1742 44.6498 35.7838 44.6577 36.4228C44.6656 37.0617 44.4989 37.6801 44.1925 38.1476L39.6369 44.6257H62.4844C64.4776 44.6257 66.3893 45.7516 67.7987 47.7559C69.2082 49.7601 70 52.4784 70 55.3128C70 58.1472 69.2082 60.8656 67.7987 62.8698C66.3893 64.874 64.4776 66 62.4844 66H57.8594C57.3994 66 56.9582 65.7402 56.633 65.2776C56.3077 64.8151 56.125 64.1878 56.125 63.5337C56.125 62.8796 56.3077 62.2523 56.633 61.7898C56.9582 61.3273 57.3994 61.0675 57.8594 61.0675H62.4844C63.5577 61.0675 64.587 60.4612 65.3459 59.382C66.1049 58.3028 66.5312 56.8391 66.5312 55.3128C66.5312 53.7866 66.1049 52.3229 65.3459 51.2437C64.587 50.1645 63.5577 49.5582 62.4844 49.5582H39.6369Z" fill="white"/>
</svg>
