<svg width="29" height="29" viewBox="0 0 29 29" fill="none" xmlns="http://www.w3.org/2000/svg">
<path d="M24.1665 4.83398H4.83317C3.504 4.83398 2.4165 5.92148 2.4165 7.25065V21.7507C2.4165 23.0798 3.504 24.1673 4.83317 24.1673H24.1665C25.4957 24.1673 26.5832 23.0798 26.5832 21.7507V7.25065C26.5832 5.92148 25.4957 4.83398 24.1665 4.83398ZM23.6832 9.9694L15.7807 14.9115C14.9953 15.4069 14.0044 15.4069 13.219 14.9115L5.3165 9.9694C5.19534 9.90139 5.08924 9.80949 5.00462 9.69928C4.92 9.58907 4.85862 9.46284 4.8242 9.32822C4.78978 9.19361 4.78303 9.05341 4.80436 8.91611C4.82569 8.7788 4.87466 8.64726 4.9483 8.52943C5.02194 8.4116 5.11873 8.30994 5.2328 8.2306C5.34687 8.15126 5.47585 8.09589 5.61194 8.06785C5.74802 8.0398 5.88839 8.03965 6.02453 8.06742C6.16068 8.09519 6.28977 8.1503 6.404 8.2294L14.4998 13.2923L22.5957 8.2294C22.7099 8.1503 22.839 8.09519 22.9751 8.06742C23.1113 8.03965 23.2516 8.0398 23.3877 8.06785C23.5238 8.09589 23.6528 8.15126 23.7669 8.2306C23.8809 8.30994 23.9777 8.4116 24.0514 8.52943C24.125 8.64726 24.174 8.7788 24.1953 8.91611C24.2166 9.05341 24.2099 9.19361 24.1755 9.32822C24.1411 9.46284 24.0797 9.58907 23.9951 9.69928C23.9104 9.80949 23.8043 9.90139 23.6832 9.9694Z" fill="white"/>
</svg>
