<svg width="33" height="31" viewBox="0 0 33 31" fill="none" xmlns="http://www.w3.org/2000/svg">
<path d="M16.5 14.8548C15.5883 14.8548 14.714 14.5146 14.0693 13.909C13.4247 13.3034 13.0625 12.4821 13.0625 11.6257C13.0625 10.7692 13.4247 9.94787 14.0693 9.34229C14.714 8.7367 15.5883 8.39648 16.5 8.39648C17.4117 8.39648 18.286 8.7367 18.9307 9.34229C19.5753 9.94787 19.9375 10.7692 19.9375 11.6257C19.9375 12.0497 19.8486 12.4696 19.6758 12.8614C19.5031 13.2532 19.2499 13.6092 18.9307 13.909C18.6115 14.2089 18.2325 14.4467 17.8155 14.609C17.3984 14.7713 16.9514 14.8548 16.5 14.8548ZM16.5 2.58398C13.9473 2.58398 11.4991 3.53659 9.6941 5.23223C7.88906 6.92787 6.875 9.22765 6.875 11.6257C6.875 18.4069 16.5 28.4173 16.5 28.4173C16.5 28.4173 26.125 18.4069 26.125 11.6257C26.125 9.22765 25.1109 6.92787 23.3059 5.23223C21.5009 3.53659 19.0527 2.58398 16.5 2.58398Z" fill="white"/>
</svg>
