<svg width="48" height="48" viewBox="0 0 48 48" fill="none" xmlns="http://www.w3.org/2000/svg">
<path d="M9.9093 24.7031L19.9874 27.5062C20.1077 27.5409 20.2173 27.6055 20.3058 27.6941C20.3943 27.7826 20.459 27.8921 20.4937 28.0124L23.2968 38.0906C23.3405 38.2434 23.4327 38.3778 23.5596 38.4735C23.6864 38.5692 23.841 38.621 23.9999 38.621C24.1588 38.621 24.3134 38.5692 24.4403 38.4735C24.5672 38.3778 24.6594 38.2434 24.7031 38.0906L27.5062 28.0124C27.5409 27.8921 27.6055 27.7826 27.6941 27.6941C27.7826 27.6055 27.8921 27.5409 28.0124 27.5062L38.0906 24.7031C38.2434 24.6594 38.3778 24.5672 38.4735 24.4403C38.5692 24.3134 38.621 24.1588 38.621 23.9999C38.621 23.841 38.5692 23.6864 38.4735 23.5596C38.3778 23.4327 38.2434 23.3405 38.0906 23.2968L28.0124 20.4937C27.8921 20.459 27.7826 20.3943 27.6941 20.3058C27.6055 20.2173 27.5409 20.1077 27.5062 19.9874L24.7031 9.9093C24.6594 9.7565 24.5672 9.62208 24.4403 9.52638C24.3134 9.43067 24.1588 9.37891 23.9999 9.37891C23.841 9.37891 23.6864 9.43067 23.5596 9.52638C23.4327 9.62208 23.3405 9.7565 23.2968 9.9093L20.4937 19.9874C20.459 20.1077 20.3943 20.2173 20.3058 20.3058C20.2173 20.3943 20.1077 20.459 19.9874 20.4937L9.9093 23.2968C9.7565 23.3405 9.62208 23.4327 9.52638 23.5596C9.43067 23.6864 9.37891 23.841 9.37891 23.9999C9.37891 24.1588 9.43067 24.3134 9.52638 24.4403C9.62208 24.5672 9.7565 24.6594 9.9093 24.7031Z" fill="url(#paint0_linear_1_302)" stroke="#FCD34D" stroke-width="4" stroke-linecap="round" stroke-linejoin="round"/>
<defs>
<linearGradient id="paint0_linear_1_302" x1="17.6156" y1="12.9468" x2="30.3843" y2="35.0531" gradientUnits="userSpaceOnUse">
<stop stop-color="#FCD966"/>
<stop offset="0.5" stop-color="#FCD966"/>
<stop offset="1" stop-color="#FCCD34"/>
</linearGradient>
</defs>
</svg>
