<svg width="29" height="29" viewBox="0 0 29 29" fill="none" xmlns="http://www.w3.org/2000/svg">
<path d="M15.7422 2.4175C16.624 2.41412 17.5057 2.42298 18.3873 2.44409L18.6217 2.45254C18.8923 2.46221 19.1594 2.47429 19.482 2.48879C20.7677 2.54921 21.6449 2.75221 22.4146 3.05067C23.2121 3.35759 23.884 3.77325 24.5558 4.44509C25.1701 5.04878 25.6455 5.77902 25.949 6.58504C26.2475 7.35475 26.4505 8.23321 26.5109 9.51888C26.5254 9.84029 26.5375 10.1085 26.5471 10.3792L26.5544 10.6136C26.5758 11.4947 26.5851 12.3761 26.5822 13.2575L26.5834 14.1589V15.7418C26.5864 16.6236 26.5771 17.5053 26.5556 18.3868L26.5483 18.6213C26.5387 18.8919 26.5266 19.159 26.5121 19.4816C26.4517 20.7673 26.2463 21.6445 25.949 22.4142C25.6465 23.2211 25.171 23.9519 24.5558 24.5554C23.9516 25.1696 23.221 25.645 22.4146 25.9486C21.6449 26.247 20.7677 26.45 19.482 26.5105C19.1594 26.525 18.8923 26.537 18.6217 26.5467L18.3873 26.554C17.5057 26.5754 16.624 26.5847 15.7422 26.5818L14.8408 26.583H13.2591C12.3773 26.5859 11.4956 26.5767 10.614 26.5552L10.3796 26.5479C10.0928 26.5375 9.806 26.5254 9.5193 26.5117C8.23363 26.4513 7.35638 26.2458 6.58546 25.9486C5.77912 25.6457 5.04875 25.1702 4.4455 24.5554C3.83052 23.9516 3.35465 23.2208 3.05109 22.4142C2.75263 21.6445 2.54963 20.7673 2.48921 19.4816C2.47576 19.1949 2.46367 18.9081 2.45296 18.6213L2.44692 18.3868C2.42464 17.5053 2.41457 16.6236 2.41671 15.7418V13.2575C2.41334 12.3761 2.4222 11.4947 2.4433 10.6136L2.45175 10.3792C2.46142 10.1085 2.4735 9.84029 2.488 9.51888C2.54842 8.232 2.75142 7.35596 3.04988 6.58504C3.35362 5.77863 3.83042 5.04858 4.44671 4.44629C5.04954 3.83095 5.77946 3.35465 6.58546 3.05067C7.35638 2.75221 8.23242 2.54921 9.5193 2.48879L10.3796 2.45254L10.614 2.4465C11.4951 2.42424 12.3765 2.41417 13.2579 2.41629L15.7422 2.4175ZM14.5 8.45917C13.6995 8.44785 12.9048 8.59574 12.1619 8.89425C11.419 9.19276 10.7429 9.63594 10.1728 10.198C9.60272 10.7601 9.15003 11.4299 8.84104 12.1685C8.53206 12.907 8.37294 13.6996 8.37294 14.5002C8.37294 15.3008 8.53206 16.0934 8.84104 16.832C9.15003 17.5706 9.60272 18.2403 10.1728 18.8024C10.7429 19.3645 11.419 19.8077 12.1619 20.1062C12.9048 20.4047 13.6995 20.5526 14.5 20.5413C16.1024 20.5413 17.6391 19.9048 18.7721 18.7717C19.9052 17.6387 20.5417 16.102 20.5417 14.4996C20.5417 12.8973 19.9052 11.3606 18.7721 10.2275C17.6391 9.09449 16.1024 8.45917 14.5 8.45917ZM14.5 10.8758C14.9816 10.867 15.46 10.9541 15.9075 11.1323C16.355 11.3104 16.7625 11.5759 17.1062 11.9132C17.4499 12.2506 17.7229 12.6531 17.9093 13.0972C18.0957 13.5412 18.1917 14.018 18.1918 14.4996C18.1919 14.9812 18.096 15.458 17.9098 15.9022C17.7235 16.3463 17.4506 16.7489 17.107 17.0864C16.7634 17.4238 16.356 17.6895 15.9086 17.8677C15.4612 18.046 14.9828 18.1333 14.5013 18.1246C13.5398 18.1246 12.6178 17.7427 11.938 17.0629C11.2582 16.3831 10.8763 15.461 10.8763 14.4996C10.8763 13.5382 11.2582 12.6162 11.938 11.9364C12.6178 11.2565 13.5398 10.8746 14.5013 10.8746L14.5 10.8758ZM20.8438 6.64667C20.454 6.66227 20.0853 6.8281 19.815 7.10943C19.5447 7.39075 19.3938 7.76575 19.3938 8.15588C19.3938 8.54601 19.5447 8.921 19.815 9.20233C20.0853 9.48365 20.454 9.64948 20.8438 9.66509C21.2444 9.66509 21.6286 9.50595 21.9118 9.22269C22.1951 8.93944 22.3542 8.55526 22.3542 8.15467C22.3542 7.75408 22.1951 7.3699 21.9118 7.08664C21.6286 6.80339 21.2444 6.64425 20.8438 6.64425V6.64667Z" fill="white"/>
</svg>
