<svg width="33" height="31" viewBox="0 0 33 31" fill="none" xmlns="http://www.w3.org/2000/svg">
<g id="mdi:address-marker">
<path id="Vector" d="M16.5 14.8529C15.5883 14.8529 14.714 14.5127 14.0693 13.9071C13.4247 13.3015 13.0625 12.4801 13.0625 11.6237C13.0625 10.7673 13.4247 9.94592 14.0693 9.34033C14.714 8.73475 15.5883 8.39453 16.5 8.39453C17.4117 8.39453 18.286 8.73475 18.9307 9.34033C19.5753 9.94592 19.9375 10.7673 19.9375 11.6237C19.9375 12.0478 19.8486 12.4677 19.6758 12.8594C19.5031 13.2512 19.2499 13.6072 18.9307 13.9071C18.6115 14.2069 18.2325 14.4448 17.8155 14.6071C17.3984 14.7693 16.9514 14.8529 16.5 14.8529ZM16.5 2.58203C13.9473 2.58203 11.4991 3.53463 9.6941 5.23027C7.88906 6.92592 6.875 9.2257 6.875 11.6237C6.875 18.4049 16.5 28.4154 16.5 28.4154C16.5 28.4154 26.125 18.4049 26.125 11.6237C26.125 9.2257 25.1109 6.92592 23.3059 5.23027C21.5009 3.53463 19.0527 2.58203 16.5 2.58203Z" fill="white"/>
</g>
</svg>
