<svg width="325" height="287" viewBox="0 0 325 287" fill="none" xmlns="http://www.w3.org/2000/svg">
<g clip-path="url(#clip0_214_1051)">
<rect width="324.691" height="286.72" rx="10.8489" fill="white"/>
<path d="M36.421 30.9982L31.7715 26.3487L36.421 21.6992" stroke="black" stroke-width="1.54984" stroke-linecap="round" stroke-linejoin="round"/>
<path d="M135.971 20.89V32.0488H134.375V24.4004C134.375 24.2764 134.378 24.1421 134.383 23.9974C134.393 23.8476 134.406 23.6978 134.422 23.548L130.834 30.1735C130.694 30.4473 130.48 30.5842 130.191 30.5842H129.935C129.64 30.5842 129.426 30.4473 129.292 30.1735L125.649 23.5325C125.665 23.6823 125.675 23.8321 125.68 23.9819C125.691 24.1317 125.696 24.2712 125.696 24.4004V32.0488H124.1V20.89H125.456C125.616 20.89 125.74 20.9055 125.828 20.9365C125.916 20.9623 125.996 21.0476 126.068 21.1922L129.648 27.6783C129.726 27.8281 129.798 27.9831 129.865 28.1432C129.937 28.2982 130.002 28.4584 130.059 28.6237C130.121 28.4584 130.185 28.2956 130.253 28.1355C130.325 27.9702 130.4 27.8126 130.477 27.6628L134.003 21.1922C134.075 21.0476 134.156 20.9623 134.243 20.9365C134.331 20.9055 134.455 20.89 134.615 20.89H135.971ZM141.48 24.0207C142.063 24.0207 142.59 24.1162 143.06 24.3074C143.536 24.4985 143.939 24.7698 144.269 25.1211C144.605 25.4724 144.863 25.8986 145.044 26.3997C145.225 26.9008 145.315 27.4639 145.315 28.089C145.315 28.7141 145.225 29.2772 145.044 29.7783C144.863 30.2794 144.605 30.7082 144.269 31.0647C143.939 31.416 143.536 31.6872 143.06 31.8783C142.59 32.0695 142.063 32.1651 141.48 32.1651C140.891 32.1651 140.358 32.0695 139.883 31.8783C139.413 31.6872 139.01 31.416 138.674 31.0647C138.339 30.7082 138.08 30.2794 137.899 29.7783C137.719 29.2772 137.628 28.7141 137.628 28.089C137.628 27.4639 137.719 26.9008 137.899 26.3997C138.08 25.8986 138.339 25.4724 138.674 25.1211C139.01 24.7698 139.413 24.4985 139.883 24.3074C140.358 24.1162 140.891 24.0207 141.48 24.0207ZM141.48 30.8632C142.192 30.8632 142.722 30.6256 143.068 30.1503C143.419 29.6698 143.595 28.9853 143.595 28.0967C143.595 27.2082 143.419 26.5237 143.068 26.0432C142.722 25.5576 142.192 25.3148 141.48 25.3148C140.756 25.3148 140.219 25.5576 139.868 26.0432C139.516 26.5237 139.341 27.2082 139.341 28.0967C139.341 28.9853 139.516 29.6698 139.868 30.1503C140.219 30.6256 140.756 30.8632 141.48 30.8632ZM148.474 25.1908C148.644 25.0151 148.82 24.8576 149.001 24.7181C149.187 24.5734 149.383 24.4495 149.59 24.3461C149.796 24.2428 150.016 24.1627 150.248 24.1059C150.481 24.0491 150.734 24.0207 151.008 24.0207C151.442 24.0207 151.821 24.093 152.147 24.2376C152.478 24.3823 152.754 24.5864 152.976 24.8498C153.203 25.1133 153.374 25.431 153.487 25.803C153.601 26.1698 153.658 26.5753 153.658 27.0196V32.0488H152V27.0196C152 26.4875 151.876 26.0742 151.628 25.7797C151.385 25.4853 151.013 25.338 150.512 25.338C150.14 25.338 149.794 25.4233 149.473 25.5938C149.158 25.7642 148.861 25.9967 148.582 26.2912V32.0488H146.916V24.1447H147.924C148.151 24.1447 148.296 24.2506 148.358 24.4624L148.474 25.1908ZM158.032 32.1728C157.376 32.1728 156.869 31.9894 156.513 31.6226C156.162 31.2507 155.986 30.7289 155.986 30.0573V25.4543H155.118C155.025 25.4543 154.945 25.4259 154.878 25.369C154.811 25.307 154.777 25.2166 154.777 25.0978V24.4236L156.056 24.2376L156.42 21.9516C156.446 21.8638 156.49 21.7941 156.552 21.7424C156.614 21.6856 156.696 21.6572 156.8 21.6572H157.652V24.2531H159.845V25.4543H157.652V29.941C157.652 30.2252 157.722 30.4422 157.861 30.592C158.001 30.7418 158.187 30.8167 158.419 30.8167C158.548 30.8167 158.659 30.8012 158.752 30.7702C158.845 30.734 158.926 30.6979 158.993 30.6617C159.06 30.6204 159.117 30.5842 159.163 30.5532C159.215 30.5171 159.264 30.499 159.31 30.499C159.403 30.499 159.478 30.5507 159.535 30.654L160.031 31.4676C159.773 31.6949 159.468 31.8706 159.117 31.9946C158.765 32.1134 158.404 32.1728 158.032 32.1728ZM162.824 25.0823C163.15 24.762 163.506 24.5063 163.894 24.3151C164.281 24.1188 164.733 24.0207 165.25 24.0207C165.684 24.0207 166.064 24.093 166.389 24.2376C166.72 24.3823 166.996 24.5864 167.218 24.8498C167.446 25.1133 167.616 25.431 167.73 25.803C167.843 26.1698 167.9 26.5753 167.9 27.0196V32.0488H166.242V27.0196C166.242 26.4875 166.118 26.0742 165.87 25.7797C165.627 25.4853 165.255 25.338 164.754 25.338C164.382 25.338 164.036 25.4233 163.716 25.5938C163.4 25.7642 163.103 25.9967 162.824 26.2912V32.0488H161.158V20.58H162.824V25.0823ZM180.325 24.1447L175.97 34.2961C175.913 34.4149 175.843 34.5079 175.761 34.5751C175.683 34.6422 175.562 34.6758 175.396 34.6758H174.164L175.621 31.5141L172.397 24.1447H173.847C173.986 24.1447 174.092 24.1782 174.164 24.2454C174.242 24.3074 174.299 24.3823 174.335 24.4701L176.218 28.9569C176.264 29.0861 176.306 29.2152 176.342 29.3444C176.383 29.4683 176.422 29.5975 176.458 29.7318C176.499 29.5975 176.541 29.4658 176.582 29.3366C176.623 29.2075 176.67 29.0783 176.721 28.9492L178.527 24.4701C178.563 24.3771 178.623 24.2996 178.705 24.2376C178.793 24.1757 178.889 24.1447 178.992 24.1447L180.325 24.1447ZM186.366 27.2056C186.366 26.9266 186.325 26.6683 186.242 26.4307C186.165 26.1879 186.049 25.9786 185.894 25.803C185.739 25.6222 185.545 25.4827 185.312 25.3845C185.085 25.2812 184.822 25.2295 184.522 25.2295C183.918 25.2295 183.442 25.4026 183.096 25.7487C182.75 26.0949 182.53 26.5805 182.437 27.2056H186.366ZM182.391 28.2285C182.412 28.6779 182.481 29.068 182.6 29.3986C182.719 29.7241 182.877 29.9953 183.073 30.2123C183.274 30.4292 183.512 30.592 183.786 30.7005C184.065 30.8038 184.375 30.8555 184.716 30.8555C185.041 30.8555 185.323 30.8193 185.56 30.747C185.798 30.6695 186.005 30.5868 186.18 30.499C186.356 30.406 186.506 30.3233 186.63 30.251C186.754 30.1735 186.867 30.1348 186.971 30.1348C187.105 30.1348 187.208 30.1864 187.281 30.2898L187.753 30.9019C187.557 31.1344 187.335 31.3307 187.087 31.4909C186.839 31.651 186.576 31.7828 186.297 31.8861C186.018 31.9843 185.731 32.054 185.436 32.0953C185.142 32.1418 184.855 32.1651 184.576 32.1651C184.029 32.1651 183.52 32.0747 183.05 31.8938C182.585 31.7079 182.179 31.4366 181.833 31.0802C181.492 30.7237 181.223 30.282 181.027 29.7551C180.836 29.2281 180.74 28.6211 180.74 27.934C180.74 27.3864 180.826 26.875 180.996 26.3997C181.172 25.9244 181.42 25.5111 181.74 25.1598C182.066 24.8085 182.458 24.5321 182.918 24.3306C183.383 24.124 183.907 24.0207 184.491 24.0207C184.977 24.0207 185.426 24.1007 185.839 24.2609C186.253 24.4159 186.609 24.6458 186.909 24.9506C187.208 25.2554 187.441 25.6299 187.606 26.0742C187.777 26.5133 187.862 27.0144 187.862 27.5775C187.862 27.8359 187.833 28.0089 187.777 28.0967C187.72 28.1846 187.617 28.2285 187.467 28.2285H182.391ZM193.639 28.5927C193.045 28.6134 192.544 28.6624 192.136 28.7399C191.727 28.8123 191.397 28.9078 191.144 29.0266C190.891 29.1403 190.707 29.2772 190.593 29.4374C190.485 29.5975 190.431 29.7732 190.431 29.9643C190.431 30.1503 190.459 30.3104 190.516 30.4447C190.578 30.5739 190.661 30.6824 190.764 30.7702C190.872 30.8529 190.996 30.9149 191.136 30.9562C191.281 30.9924 191.438 31.0104 191.609 31.0104C192.043 31.0104 192.415 30.9304 192.725 30.7702C193.04 30.6049 193.344 30.3673 193.639 30.0573V28.5927ZM189.222 25.245C190.116 24.4133 191.18 23.9974 192.415 23.9974C192.869 23.9974 193.272 24.0723 193.623 24.2222C193.98 24.3668 194.277 24.5734 194.515 24.8421C194.757 25.1107 194.941 25.431 195.065 25.803C195.194 26.1698 195.258 26.5779 195.258 27.0274V32.0488H194.515C194.354 32.0488 194.233 32.0256 194.15 31.9791C194.068 31.9274 193.998 31.8267 193.941 31.6769L193.778 31.0337C193.577 31.2145 193.378 31.3772 193.182 31.5219C192.985 31.6614 192.781 31.7802 192.57 31.8783C192.363 31.9765 192.138 32.0488 191.895 32.0953C191.658 32.147 191.394 32.1728 191.105 32.1728C190.785 32.1728 190.485 32.1289 190.206 32.0411C189.932 31.9533 189.695 31.8215 189.493 31.6459C189.292 31.4651 189.131 31.2429 189.013 30.9794C188.899 30.716 188.842 30.406 188.842 30.0495C188.842 29.7447 188.922 29.4477 189.082 29.1584C189.248 28.8691 189.516 28.6108 189.888 28.3835C190.265 28.151 190.759 27.9598 191.368 27.81C191.983 27.6602 192.74 27.575 193.639 27.5543V27.0274C193.639 26.4591 193.518 26.0355 193.275 25.7565C193.032 25.4775 192.675 25.338 192.205 25.338C191.885 25.338 191.616 25.3794 191.399 25.462C191.182 25.5395 190.994 25.6248 190.834 25.7177C190.674 25.8107 190.531 25.8986 190.408 25.9812C190.284 26.0587 190.152 26.0975 190.012 26.0975C189.899 26.0975 189.8 26.069 189.718 26.0122C189.64 25.9502 189.576 25.8753 189.524 25.7875L189.222 25.245ZM198.783 25.6093C199.031 25.1081 199.331 24.7155 199.682 24.4314C200.033 24.1421 200.455 23.9974 200.945 23.9974C201.116 23.9974 201.276 24.0181 201.426 24.0594C201.576 24.0956 201.71 24.1524 201.829 24.2299L201.712 25.4853C201.692 25.5731 201.658 25.6351 201.612 25.6712C201.57 25.7022 201.514 25.7177 201.441 25.7177C201.364 25.7177 201.253 25.7048 201.108 25.679C200.963 25.648 200.811 25.6325 200.651 25.6325C200.418 25.6325 200.212 25.6661 200.031 25.7332C199.855 25.8004 199.695 25.8986 199.55 26.0277C199.411 26.1569 199.287 26.3144 199.179 26.5004C199.07 26.6864 198.969 26.8982 198.876 27.1358V32.0488H197.21V24.1447L198.179 24.1447C198.355 24.1447 198.476 24.1782 198.543 24.2454C198.61 24.3074 198.657 24.4185 198.683 24.5786L198.783 25.6093Z" fill="#828282"/>
<path d="M288.27 30.9982L292.919 26.3487L288.27 21.6992" stroke="black" stroke-width="1.54984" stroke-linecap="round" stroke-linejoin="round"/>
<line x1="0.387459" y1="53.8586" x2="274.709" y2="53.8586" stroke="#BDBDBD" stroke-width="0.774919" stroke-linecap="round"/>
<path d="M35.2736 70.6066C35.2426 70.6593 35.2101 70.698 35.176 70.7228C35.1419 70.7476 35.0985 70.76 35.0458 70.76C34.99 70.76 34.9265 70.7352 34.8552 70.6856C34.7839 70.6329 34.694 70.5756 34.5855 70.5136C34.4801 70.4485 34.353 70.3912 34.2043 70.3416C34.0555 70.2889 33.8772 70.2625 33.6696 70.2625C33.4743 70.2625 33.3023 70.2889 33.1535 70.3416C33.0078 70.3912 32.8853 70.4609 32.7862 70.5508C32.687 70.6376 32.611 70.7414 32.5583 70.8623C32.5087 70.9801 32.4839 71.1087 32.4839 71.2482C32.4839 71.428 32.5289 71.5768 32.6188 71.6946C32.7118 71.8124 32.8327 71.9131 32.9814 71.9968C33.1302 72.0805 33.2992 72.1533 33.4882 72.2153C33.6773 72.2773 33.871 72.3424 34.0694 72.4106C34.2678 72.4757 34.4615 72.5516 34.6506 72.6384C34.8397 72.7252 35.0086 72.8353 35.1574 72.9686C35.3062 73.0987 35.4255 73.2599 35.5154 73.4521C35.6084 73.6412 35.6549 73.8737 35.6549 74.1495C35.6549 74.444 35.6038 74.7199 35.5015 74.9771C35.4023 75.2344 35.2566 75.4591 35.0644 75.6513C34.8722 75.8435 34.6351 75.9954 34.353 76.107C34.0741 76.2155 33.7564 76.2697 33.3999 76.2697C33.186 76.2697 32.9783 76.248 32.7769 76.2046C32.5754 76.1643 32.3847 76.107 32.205 76.0326C32.0252 75.9551 31.8563 75.8636 31.6982 75.7583C31.5432 75.6498 31.4037 75.5289 31.2797 75.3956L31.5633 74.9213C31.5912 74.8842 31.6238 74.8532 31.661 74.8284C31.7013 74.8036 31.7462 74.7912 31.7958 74.7912C31.8609 74.7912 31.9353 74.8253 32.019 74.8934C32.1058 74.9616 32.2112 75.0376 32.3352 75.1213C32.4622 75.2019 32.6126 75.2763 32.7862 75.3445C32.9628 75.4126 33.1767 75.4467 33.4278 75.4467C33.6324 75.4467 33.8152 75.4204 33.9764 75.3677C34.1376 75.3119 34.2724 75.2344 34.3809 75.1352C34.4925 75.0329 34.5778 74.9105 34.6367 74.7679C34.6956 74.6253 34.725 74.4672 34.725 74.2937C34.725 74.0984 34.6801 73.9387 34.5902 73.8148C34.5003 73.6908 34.3809 73.5869 34.2322 73.5032C34.0834 73.4196 33.9144 73.3483 33.7254 73.2894C33.5363 73.2305 33.3425 73.17 33.1442 73.108C32.9458 73.0429 32.7521 72.9686 32.563 72.8849C32.3739 72.8012 32.205 72.6927 32.0562 72.5594C31.9074 72.423 31.7881 72.2541 31.6982 72.0526C31.6083 71.848 31.5633 71.5969 31.5633 71.2994C31.5633 71.0607 31.6098 70.8298 31.7028 70.6066C31.7958 70.3834 31.9306 70.1866 32.1073 70.0161C32.2871 69.8425 32.5072 69.7046 32.7676 69.6023C33.0279 69.4969 33.3255 69.4442 33.6603 69.4442C34.0353 69.4442 34.3794 69.5047 34.6925 69.6256C35.0086 69.7433 35.2829 69.9138 35.5154 70.137L35.2736 70.6066ZM39.7599 75.4002C40.0265 75.4002 40.2652 75.3553 40.4759 75.2654C40.6867 75.1755 40.8649 75.05 41.0106 74.8888C41.1563 74.7245 41.2679 74.5308 41.3454 74.3076C41.4229 74.0813 41.4616 73.8318 41.4616 73.559V69.5186H42.4473V73.559C42.4473 73.9496 42.3853 74.3107 42.2614 74.6424C42.1374 74.974 41.9591 75.2608 41.7267 75.5025C41.4942 75.7443 41.2121 75.9334 40.8804 76.0698C40.5488 76.2062 40.1753 76.2744 39.7599 76.2744C39.3446 76.2744 38.971 76.2062 38.6394 76.0698C38.3077 75.9334 38.0256 75.7443 37.7932 75.5025C37.5607 75.2608 37.3825 74.974 37.2585 74.6424C37.1345 74.3107 37.0725 73.9496 37.0725 73.559V69.5186H38.0628V73.5544C38.0628 73.8272 38.1 74.0767 38.1744 74.303C38.2519 74.5292 38.3635 74.7245 38.5092 74.8888C38.6549 75.05 38.8331 75.1755 39.0439 75.2654C39.2547 75.3553 39.4933 75.4002 39.7599 75.4002ZM49.7592 69.5186V76.1953H49.2571C49.1796 76.1953 49.1145 76.1814 49.0618 76.1535C49.0122 76.1256 48.961 76.0806 48.9083 76.0186L45.1376 71.1413C45.1438 71.225 45.1484 71.3071 45.1515 71.3877C45.1577 71.4683 45.1608 71.5443 45.1608 71.6155V76.1953H44.2914V69.5186H44.8028C44.8896 69.5186 44.9547 69.5295 44.9981 69.5512C45.0415 69.5698 45.0895 69.6147 45.1422 69.686L48.9223 74.568C48.913 74.4781 48.9052 74.3913 48.899 74.3076C48.8959 74.2208 48.8944 74.1402 48.8944 74.0658V69.5186H49.7592Z" fill="black"/>
<path d="M79.1367 69.5186V76.1953H78.2719V71.4435C78.2719 71.3722 78.2734 71.2963 78.2765 71.2157C78.2827 71.1351 78.2889 71.053 78.2951 70.9693L76.0727 75.0469C75.9952 75.1988 75.8758 75.2747 75.7147 75.2747H75.5752C75.414 75.2747 75.2962 75.1988 75.2218 75.0469L72.9575 70.9553C72.9761 71.1289 72.9854 71.2916 72.9854 71.4435V76.1953H72.1159V69.5186H72.8506C72.9373 69.5186 73.004 69.5279 73.0505 69.5465C73.1001 69.562 73.1466 69.6085 73.19 69.686L75.4217 73.6846C75.4651 73.7652 75.5054 73.8504 75.5426 73.9403C75.5798 74.0302 75.6155 74.1201 75.6496 74.21C75.7147 74.0271 75.7906 73.8504 75.8774 73.6799L78.0673 69.686C78.1076 69.6085 78.151 69.562 78.1975 69.5465C78.2471 69.5279 78.3153 69.5186 78.4021 69.5186H79.1367ZM87.2884 72.857C87.2884 73.356 87.2078 73.8148 87.0466 74.2332C86.8885 74.6486 86.6638 75.0081 86.3724 75.3119C86.0811 75.6126 85.7323 75.8466 85.3263 76.014C84.9202 76.1814 84.4692 76.2651 83.9733 76.2651C83.4804 76.2651 83.0294 76.1814 82.6203 76.014C82.2142 75.8466 81.8655 75.6126 81.5741 75.3119C81.2859 75.0081 81.0611 74.6486 80.8999 74.2332C80.7388 73.8148 80.6582 73.356 80.6582 72.857C80.6582 72.361 80.7388 71.9038 80.8999 71.4854C81.0611 71.0669 81.2859 70.7073 81.5741 70.4067C81.8655 70.1029 82.2142 69.8673 82.6203 69.6999C83.0294 69.5295 83.4804 69.4442 83.9733 69.4442C84.4692 69.4442 84.9202 69.5295 85.3263 69.6999C85.7323 69.8673 86.0811 70.1029 86.3724 70.4067C86.6638 70.7073 86.8885 71.0669 87.0466 71.4854C87.2078 71.9038 87.2884 72.361 87.2884 72.857ZM86.2748 72.857C86.2748 72.4602 86.2205 72.1037 86.1121 71.7876C86.0036 71.4714 85.8486 71.2033 85.6471 70.9832C85.4487 70.7631 85.2069 70.5942 84.9218 70.4764C84.6397 70.3586 84.3235 70.2997 83.9733 70.2997C83.623 70.2997 83.3053 70.3586 83.0201 70.4764C82.7381 70.5942 82.4963 70.7631 82.2948 70.9832C82.0933 71.2033 81.9383 71.4714 81.8299 71.7876C81.7214 72.1037 81.6671 72.4602 81.6671 72.857C81.6671 73.2568 81.7214 73.6148 81.8299 73.931C81.9383 74.2441 82.0933 74.5106 82.2948 74.7307C82.4963 74.9508 82.7381 75.1197 83.0201 75.2375C83.3053 75.3522 83.623 75.4095 83.9733 75.4095C84.3235 75.4095 84.6397 75.3522 84.9218 75.2375C85.2069 75.1197 85.4487 74.9508 85.6471 74.7307C85.8486 74.5106 86.0036 74.2441 86.1121 73.931C86.2205 73.6148 86.2748 73.2568 86.2748 72.857ZM94.2788 69.5186V76.1953H93.7766C93.6991 76.1953 93.634 76.1814 93.5813 76.1535C93.5318 76.1256 93.4806 76.0806 93.4279 76.0186L89.6572 71.1413C89.6634 71.225 89.668 71.3071 89.6711 71.3877C89.6773 71.4683 89.6804 71.5443 89.6804 71.6155V76.1953H88.8109V69.5186H89.3224C89.4092 69.5186 89.4743 69.5295 89.5177 69.5512C89.5611 69.5698 89.6091 69.6147 89.6618 69.686L93.4419 74.568C93.4326 74.4781 93.4248 74.3913 93.4186 74.3076C93.4155 74.2208 93.414 74.1402 93.414 74.0658V69.5186H94.2788Z" fill="black"/>
<path d="M120.838 70.3462H118.718V76.1953H117.732V70.3462H115.602V69.5186H120.838V70.3462ZM124.681 75.4002C124.947 75.4002 125.186 75.3553 125.397 75.2654C125.608 75.1755 125.786 75.05 125.931 74.8888C126.077 74.7245 126.189 74.5308 126.266 74.3076C126.344 74.0813 126.382 73.8318 126.382 73.559V69.5186H127.368V73.559C127.368 73.9496 127.306 74.3107 127.182 74.6424C127.058 74.974 126.88 75.2608 126.648 75.5025C126.415 75.7443 126.133 75.9334 125.801 76.0698C125.47 76.2062 125.096 76.2744 124.681 76.2744C124.265 76.2744 123.892 76.2062 123.56 76.0698C123.229 75.9334 122.946 75.7443 122.714 75.5025C122.482 75.2608 122.303 74.974 122.179 74.6424C122.055 74.3107 121.993 73.9496 121.993 73.559V69.5186H122.984V73.5544C122.984 73.8272 123.021 74.0767 123.095 74.303C123.173 74.5292 123.284 74.7245 123.43 74.8888C123.576 75.05 123.754 75.1755 123.965 75.2654C124.176 75.3553 124.414 75.4002 124.681 75.4002ZM133.355 75.3909L133.35 76.1953L129.212 76.1953V69.5186L133.35 69.5186V70.323L130.207 70.323V72.4385L132.737 72.4385V73.215L130.207 73.215V75.3909H133.355Z" fill="black"/>
<path d="M163.75 69.5186L161.667 76.1953H160.774L159.147 71.2436C159.11 71.1444 159.077 71.0251 159.049 70.8856C159.015 71.0282 158.982 71.1475 158.951 71.2436L157.306 76.1953H156.418L154.335 69.5186H155.162C155.249 69.5186 155.322 69.5403 155.381 69.5837C155.44 69.624 155.478 69.6798 155.497 69.7511L156.813 74.2193C156.838 74.3061 156.859 74.4006 156.878 74.5029C156.9 74.6052 156.921 74.7121 156.943 74.8237C156.965 74.7121 156.986 74.6052 157.008 74.5029C157.033 74.4006 157.061 74.3061 157.092 74.2193L158.598 69.7511C158.617 69.6891 158.655 69.6349 158.714 69.5884C158.776 69.5419 158.849 69.5186 158.933 69.5186H159.217C159.303 69.5186 159.375 69.5403 159.43 69.5837C159.486 69.6271 159.526 69.6829 159.551 69.7511L161.053 74.2193C161.109 74.3898 161.158 74.5835 161.202 74.8005C161.239 74.5866 161.279 74.3929 161.323 74.2193L162.643 69.7511C162.659 69.6891 162.697 69.6349 162.759 69.5884C162.821 69.5419 162.894 69.5186 162.978 69.5186H163.75ZM169.116 75.3909L169.111 76.1953H164.973V69.5186H169.111V70.323H165.968V72.4385H168.498V73.215H165.968V75.3909L169.116 75.3909ZM176.445 72.857C176.445 73.356 176.364 73.8101 176.203 74.2193C176.045 74.6284 175.82 74.9802 175.529 75.2747C175.238 75.5661 174.889 75.7924 174.483 75.9535C174.077 76.1147 173.626 76.1953 173.13 76.1953L170.619 76.1953V69.5186H173.13C173.626 69.5186 174.077 69.5992 174.483 69.7604C174.889 69.9216 175.238 70.1494 175.529 70.4439C175.82 70.7352 176.045 71.087 176.203 71.4993C176.364 71.9085 176.445 72.361 176.445 72.857ZM175.431 72.857C175.431 72.4602 175.377 72.1053 175.269 71.7922C175.16 71.4761 175.005 71.2095 174.804 70.9925C174.605 70.7724 174.363 70.605 174.078 70.4904C173.796 70.3757 173.48 70.3183 173.13 70.3183H171.614V75.3956H173.13C173.48 75.3956 173.796 75.3383 174.078 75.2236C174.363 75.1089 174.605 74.943 174.804 74.7261C175.005 74.506 175.16 74.2394 175.269 73.9264C175.377 73.6133 175.431 73.2568 175.431 72.857Z" fill="black"/>
<path d="M202.978 70.3462H200.858V76.1953H199.872V70.3462H197.743V69.5186H202.978V70.3462ZM209.685 69.5186V76.1953H208.695V73.1871H205.213V76.1953H204.218V69.5186H205.213V72.4664H208.695V69.5186H209.685ZM214.22 75.4002C214.486 75.4002 214.725 75.3553 214.936 75.2654C215.147 75.1755 215.325 75.05 215.471 74.8888C215.616 74.7245 215.728 74.5308 215.805 74.3076C215.883 74.0813 215.922 73.8318 215.922 73.559V69.5186H216.907V73.559C216.907 73.9496 216.845 74.3107 216.721 74.6424C216.597 74.974 216.419 75.2608 216.187 75.5025C215.954 75.7443 215.672 75.9334 215.34 76.0698C215.009 76.2062 214.635 76.2744 214.22 76.2744C213.805 76.2744 213.431 76.2062 213.099 76.0698C212.768 75.9334 212.486 75.7443 212.253 75.5025C212.021 75.2608 211.842 74.974 211.718 74.6424C211.595 74.3107 211.533 73.9496 211.533 73.559V69.5186H212.523V73.5544C212.523 73.8272 212.56 74.0767 212.634 74.303C212.712 74.5292 212.824 74.7245 212.969 74.8888C213.115 75.05 213.293 75.1755 213.504 75.2654C213.715 75.3553 213.953 75.4002 214.22 75.4002Z" fill="black"/>
<path d="M239.718 70.323V72.5594H242.396V73.3638H239.718V76.1953H238.723V69.5186H242.861V70.323H239.718ZM246.153 72.7361C246.407 72.7361 246.63 72.7051 246.822 72.6431C247.017 72.5811 247.18 72.4943 247.31 72.3827C247.441 72.268 247.538 72.1332 247.603 71.9782C247.668 71.8201 247.701 71.6465 247.701 71.4575C247.701 71.0731 247.574 70.7833 247.32 70.588C247.069 70.3927 246.69 70.2951 246.185 70.2951H245.251V72.7361H246.153ZM249.268 76.1953H248.384C248.208 76.1953 248.079 76.1256 247.998 75.9861L246.348 73.6706C246.295 73.5931 246.238 73.5389 246.176 73.5079C246.114 73.4738 246.021 73.4567 245.897 73.4567H245.251V76.1953H244.26V69.5186H246.185C246.616 69.5186 246.986 69.5636 247.296 69.6534C247.609 69.7402 247.867 69.8658 248.068 70.0301C248.273 70.1912 248.423 70.3865 248.519 70.6159C248.618 70.8453 248.668 71.1025 248.668 71.3877C248.668 71.6202 248.632 71.8387 248.561 72.0433C248.49 72.2479 248.384 72.4323 248.245 72.5966C248.109 72.7578 247.941 72.8973 247.743 73.015C247.544 73.1328 247.32 73.2227 247.069 73.2847C247.193 73.3591 247.3 73.4629 247.389 73.5962L249.268 76.1953ZM251.401 76.1953H250.406V69.5186H251.401V76.1953Z" fill="black"/>
<path d="M277.049 70.6066C277.018 70.6593 276.985 70.698 276.951 70.7228C276.917 70.7476 276.874 70.76 276.821 70.76C276.765 70.76 276.702 70.7352 276.631 70.6856C276.559 70.6329 276.469 70.5756 276.361 70.5136C276.256 70.4485 276.128 70.3912 275.98 70.3416C275.831 70.2889 275.653 70.2625 275.445 70.2625C275.25 70.2625 275.078 70.2889 274.929 70.3416C274.783 70.3912 274.661 70.4609 274.562 70.5508C274.462 70.6376 274.386 70.7414 274.334 70.8623C274.284 70.9801 274.259 71.1087 274.259 71.2482C274.259 71.428 274.304 71.5768 274.394 71.6946C274.487 71.8124 274.608 71.9131 274.757 71.9968C274.906 72.0805 275.075 72.1533 275.264 72.2153C275.453 72.2773 275.646 72.3424 275.845 72.4106C276.043 72.4757 276.237 72.5516 276.426 72.6384C276.615 72.7252 276.784 72.8353 276.933 72.9686C277.082 73.0987 277.201 73.2599 277.291 73.4521C277.384 73.6412 277.43 73.8737 277.43 74.1495C277.43 74.444 277.379 74.7199 277.277 74.9771C277.178 75.2344 277.032 75.4591 276.84 75.6513C276.648 75.8435 276.411 75.9954 276.128 76.107C275.849 76.2155 275.532 76.2697 275.175 76.2697C274.961 76.2697 274.754 76.248 274.552 76.2046C274.351 76.1643 274.16 76.107 273.98 76.0326C273.801 75.9551 273.632 75.8636 273.474 75.7583C273.319 75.6498 273.179 75.5289 273.055 75.3956L273.339 74.9213C273.367 74.8842 273.399 74.8532 273.436 74.8284C273.477 74.8036 273.522 74.7912 273.571 74.7912C273.636 74.7912 273.711 74.8253 273.794 74.8934C273.881 74.9616 273.987 75.0376 274.111 75.1213C274.238 75.2019 274.388 75.2763 274.562 75.3445C274.738 75.4126 274.952 75.4467 275.203 75.4467C275.408 75.4467 275.591 75.4204 275.752 75.3677C275.913 75.3119 276.048 75.2344 276.156 75.1352C276.268 75.0329 276.353 74.9105 276.412 74.7679C276.471 74.6253 276.5 74.4672 276.5 74.2937C276.5 74.0984 276.455 73.9387 276.366 73.8148C276.276 73.6908 276.156 73.5869 276.008 73.5032C275.859 73.4196 275.69 73.3483 275.501 73.2894C275.312 73.2305 275.118 73.17 274.92 73.108C274.721 73.0429 274.527 72.9686 274.338 72.8849C274.149 72.8012 273.98 72.6927 273.832 72.5594C273.683 72.423 273.563 72.2541 273.474 72.0526C273.384 71.848 273.339 71.5969 273.339 71.2994C273.339 71.0607 273.385 70.8298 273.478 70.6066C273.571 70.3834 273.706 70.1866 273.883 70.0161C274.062 69.8425 274.283 69.7046 274.543 69.6023C274.803 69.4969 275.101 69.4442 275.436 69.4442C275.811 69.4442 276.155 69.5047 276.468 69.6256C276.784 69.7433 277.058 69.9138 277.291 70.137L277.049 70.6066ZM282.352 73.7078L281.362 71.118C281.29 70.9414 281.219 70.7182 281.148 70.4485C281.114 70.5818 281.078 70.7058 281.041 70.8205C281.007 70.9352 280.973 71.0375 280.939 71.1273L279.953 73.7078H282.352ZM284.309 76.1953H283.547C283.46 76.1953 283.389 76.1736 283.333 76.1302C283.277 76.0868 283.237 76.031 283.212 75.9628L282.622 74.4145H279.679L279.088 75.9628C279.066 76.0217 279.026 76.076 278.967 76.1256C278.908 76.1721 278.837 76.1953 278.753 76.1953H277.991L280.65 69.5186H281.65L284.309 76.1953ZM289.32 70.3462L287.2 70.3462V76.1953H286.214V70.3462H284.085V69.5186L289.32 69.5186V70.3462Z" fill="black"/>
<path d="M44.1524 111.676V112.715H38.7404V111.676H40.8605V105.113C40.8605 104.904 40.8675 104.687 40.8815 104.464L39.1797 105.908C39.1146 105.959 39.0496 105.992 38.9845 106.006C38.9194 106.02 38.8566 106.022 38.7962 106.013C38.7404 106.003 38.6892 105.985 38.6427 105.957C38.6009 105.924 38.566 105.892 38.5381 105.859L38.1127 105.266L41.1116 102.679H42.2205V111.676H44.1524Z" fill="black"/>
<path d="M84.1982 111.425C84.347 111.425 84.4632 111.469 84.5469 111.557C84.6306 111.641 84.6724 111.752 84.6724 111.892V112.715H77.9493V112.248C77.9493 112.155 77.9678 112.057 78.005 111.955C78.0422 111.848 78.105 111.752 78.1934 111.669L81.3597 108.495C81.6247 108.23 81.8641 107.975 82.078 107.728C82.2919 107.482 82.4732 107.238 82.622 106.996C82.7708 106.75 82.8847 106.498 82.9638 106.243C83.0474 105.987 83.0893 105.717 83.0893 105.434C83.0893 105.155 83.0451 104.911 82.9568 104.701C82.8684 104.488 82.7475 104.311 82.5941 104.171C82.4407 104.032 82.2593 103.927 82.0501 103.858C81.8409 103.788 81.6154 103.753 81.3736 103.753C81.1318 103.753 80.9087 103.788 80.7041 103.858C80.5042 103.927 80.3252 104.025 80.1671 104.15C80.009 104.276 79.8765 104.425 79.7695 104.597C79.6626 104.769 79.5859 104.955 79.5394 105.155C79.4743 105.331 79.3906 105.45 79.2883 105.51C79.1907 105.571 79.0465 105.585 78.8559 105.552L78.1445 105.427C78.2096 104.962 78.3375 104.553 78.5281 104.199C78.7187 103.846 78.9582 103.551 79.2465 103.314C79.5347 103.072 79.8649 102.89 80.2368 102.77C80.6134 102.649 81.0179 102.588 81.4503 102.588C81.8874 102.588 82.2896 102.653 82.6569 102.783C83.0288 102.909 83.3497 103.093 83.6193 103.334C83.889 103.576 84.1006 103.871 84.254 104.22C84.4074 104.564 84.4841 104.955 84.4841 105.392C84.4841 105.764 84.4283 106.11 84.3168 106.431C84.2098 106.747 84.061 107.049 83.8704 107.338C83.6844 107.626 83.4659 107.907 83.2148 108.182C82.9684 108.451 82.7057 108.726 82.4267 109.005L79.8881 111.599C80.0834 111.548 80.2787 111.506 80.4739 111.473C80.6739 111.441 80.8622 111.425 81.0389 111.425H84.1982Z" fill="black"/>
<path d="M118.481 105.427C118.551 104.962 118.681 104.553 118.872 104.199C119.062 103.846 119.302 103.551 119.59 103.314C119.878 103.072 120.209 102.89 120.581 102.77C120.957 102.649 121.362 102.588 121.794 102.588C122.226 102.588 122.624 102.651 122.987 102.777C123.349 102.897 123.659 103.072 123.914 103.3C124.175 103.523 124.377 103.792 124.521 104.109C124.665 104.425 124.737 104.773 124.737 105.155C124.737 105.476 124.698 105.759 124.619 106.006C124.54 106.252 124.426 106.468 124.277 106.654C124.133 106.84 123.956 106.998 123.747 107.128C123.538 107.254 123.303 107.359 123.042 107.442C123.679 107.619 124.158 107.907 124.479 108.307C124.8 108.702 124.96 109.204 124.96 109.814C124.96 110.283 124.872 110.706 124.695 111.083C124.519 111.455 124.277 111.771 123.97 112.031C123.663 112.287 123.305 112.485 122.896 112.624C122.492 112.759 122.059 112.826 121.599 112.826C121.073 112.826 120.622 112.764 120.246 112.638C119.869 112.508 119.548 112.329 119.283 112.101C119.018 111.869 118.797 111.592 118.621 111.271C118.449 110.946 118.302 110.59 118.181 110.204L118.774 109.953C118.928 109.888 119.076 109.869 119.221 109.897C119.365 109.925 119.469 110.007 119.534 110.141C119.604 110.281 119.683 110.439 119.772 110.616C119.865 110.788 119.988 110.953 120.141 111.111C120.295 111.264 120.485 111.394 120.713 111.501C120.946 111.608 121.236 111.662 121.585 111.662C121.92 111.662 122.213 111.608 122.464 111.501C122.715 111.39 122.924 111.248 123.091 111.076C123.259 110.899 123.384 110.704 123.468 110.49C123.552 110.276 123.593 110.065 123.593 109.855C123.593 109.595 123.561 109.356 123.496 109.137C123.431 108.919 123.305 108.733 123.119 108.579C122.938 108.421 122.684 108.298 122.359 108.209C122.034 108.121 121.61 108.077 121.09 108.077V107.087C121.517 107.082 121.878 107.038 122.171 106.954C122.468 106.87 122.708 106.754 122.889 106.605C123.07 106.457 123.201 106.28 123.28 106.075C123.363 105.871 123.405 105.643 123.405 105.392C123.405 105.118 123.363 104.878 123.28 104.674C123.196 104.469 123.077 104.299 122.924 104.164C122.775 104.025 122.596 103.923 122.387 103.858C122.182 103.788 121.959 103.753 121.717 103.753C121.476 103.753 121.252 103.788 121.048 103.858C120.843 103.927 120.662 104.025 120.504 104.15C120.346 104.276 120.213 104.425 120.106 104.597C119.999 104.769 119.923 104.955 119.876 105.155C119.811 105.331 119.727 105.45 119.625 105.51C119.527 105.571 119.386 105.585 119.2 105.552L118.481 105.427Z" fill="black"/>
<path d="M162.977 109.06V105.155C162.977 105.02 162.979 104.878 162.984 104.729C162.993 104.576 163.009 104.418 163.032 104.255L159.524 109.06H162.977ZM165.62 109.06V109.848C165.62 109.927 165.594 109.995 165.543 110.051C165.492 110.106 165.42 110.134 165.327 110.134H164.169V112.715H162.977V110.134H158.583C158.481 110.134 158.395 110.106 158.325 110.051C158.255 109.99 158.209 109.916 158.185 109.827L158.046 109.13L162.886 102.693H164.169V109.06H165.62Z" fill="black"/>
<path d="M200.81 106.438C201.321 106.331 201.784 106.278 202.198 106.278C202.718 106.278 203.179 106.357 203.578 106.515C203.978 106.668 204.313 106.882 204.583 107.156C204.857 107.426 205.062 107.747 205.197 108.119C205.336 108.486 205.406 108.886 205.406 109.318C205.406 109.848 205.313 110.33 205.127 110.762C204.941 111.194 204.685 111.564 204.36 111.871C204.034 112.178 203.648 112.415 203.202 112.582C202.76 112.745 202.284 112.826 201.772 112.826C201.47 112.826 201.182 112.796 200.907 112.736C200.638 112.675 200.384 112.596 200.147 112.499C199.91 112.396 199.689 112.28 199.485 112.15C199.285 112.02 199.106 111.883 198.948 111.738L199.366 111.153C199.454 111.022 199.573 110.957 199.722 110.957C199.819 110.957 199.926 110.995 200.043 111.069C200.163 111.139 200.305 111.218 200.468 111.306C200.631 111.394 200.824 111.476 201.047 111.55C201.27 111.62 201.535 111.655 201.842 111.655C202.181 111.655 202.486 111.601 202.756 111.494C203.03 111.383 203.26 111.227 203.446 111.027C203.637 110.827 203.781 110.588 203.878 110.309C203.981 110.03 204.032 109.721 204.032 109.381C204.032 109.079 203.988 108.807 203.899 108.565C203.811 108.323 203.678 108.116 203.502 107.944C203.325 107.772 203.104 107.642 202.839 107.554C202.574 107.461 202.265 107.414 201.912 107.414C201.419 107.414 200.893 107.503 200.335 107.679L199.478 107.428L200.294 102.7H205.092V103.293C205.092 103.488 205.029 103.648 204.904 103.774C204.783 103.895 204.578 103.955 204.29 103.955H201.242L200.81 106.438Z" fill="black"/>
<path d="M242.534 111.69C242.855 111.69 243.146 111.638 243.406 111.536C243.666 111.429 243.89 111.285 244.076 111.104C244.262 110.922 244.406 110.706 244.508 110.455C244.61 110.204 244.661 109.932 244.661 109.639C244.661 109.318 244.61 109.032 244.508 108.781C244.41 108.526 244.271 108.309 244.09 108.133C243.913 107.956 243.699 107.821 243.448 107.728C243.197 107.635 242.918 107.589 242.611 107.589C242.29 107.589 242.002 107.645 241.746 107.756C241.491 107.863 241.272 108.01 241.091 108.196C240.909 108.377 240.77 108.591 240.672 108.837C240.575 109.084 240.526 109.342 240.526 109.611C240.526 109.918 240.57 110.199 240.658 110.455C240.747 110.711 240.877 110.929 241.049 111.111C241.221 111.292 241.43 111.434 241.676 111.536C241.928 111.638 242.214 111.69 242.534 111.69ZM241.893 106.424C241.814 106.526 241.735 106.626 241.656 106.724C241.581 106.817 241.509 106.91 241.439 107.003C241.663 106.859 241.909 106.747 242.179 106.668C242.453 106.589 242.748 106.55 243.064 106.55C243.46 106.55 243.836 106.615 244.194 106.745C244.552 106.875 244.866 107.066 245.136 107.317C245.41 107.568 245.626 107.879 245.784 108.251C245.942 108.623 246.021 109.051 246.021 109.535C246.021 109.995 245.938 110.427 245.77 110.832C245.603 111.232 245.366 111.58 245.059 111.878C244.757 112.171 244.394 112.403 243.971 112.575C243.548 112.743 243.078 112.826 242.562 112.826C242.051 112.826 241.588 112.745 241.174 112.582C240.765 112.42 240.414 112.189 240.121 111.892C239.833 111.59 239.61 111.227 239.452 110.804C239.294 110.376 239.215 109.902 239.215 109.381C239.215 108.935 239.31 108.465 239.501 107.972C239.696 107.475 240.003 106.945 240.421 106.382L242.925 103.028C242.995 102.935 243.092 102.858 243.218 102.797C243.343 102.732 243.487 102.7 243.65 102.7H244.864L241.893 106.424Z" fill="black"/>
<path d="M286.36 102.7V103.307C286.36 103.483 286.339 103.627 286.297 103.739C286.26 103.846 286.223 103.939 286.186 104.018L282.127 112.234C282.062 112.368 281.971 112.482 281.855 112.575C281.739 112.668 281.583 112.715 281.388 112.715H280.411L284.533 104.618C284.603 104.488 284.672 104.369 284.742 104.262C284.812 104.15 284.889 104.048 284.972 103.955H279.853C279.765 103.955 279.688 103.923 279.623 103.858C279.558 103.792 279.525 103.716 279.525 103.627V102.7H286.36Z" fill="black"/>
<path d="M41.0698 150.492C41.3859 150.492 41.6672 150.447 41.9137 150.359C42.1601 150.271 42.3693 150.147 42.5413 149.989C42.7134 149.827 42.8436 149.634 42.9319 149.411C43.0202 149.187 43.0644 148.943 43.0644 148.678C43.0644 148.353 43.0109 148.074 42.904 147.841C42.7971 147.604 42.6529 147.411 42.4716 147.262C42.2903 147.109 42.0787 146.997 41.8369 146.928C41.5952 146.853 41.3394 146.816 41.0698 146.816C40.7954 146.816 40.5374 146.853 40.2956 146.928C40.0538 146.997 39.8423 147.109 39.661 147.262C39.4796 147.411 39.3355 147.604 39.2286 147.841C39.1263 148.074 39.0751 148.353 39.0751 148.678C39.0751 148.943 39.1193 149.187 39.2076 149.411C39.296 149.634 39.4262 149.827 39.5982 149.989C39.7702 150.147 39.9795 150.271 40.2259 150.359C40.4723 150.447 40.7536 150.492 41.0698 150.492ZM41.0698 142.38C40.7815 142.38 40.5281 142.425 40.3096 142.513C40.0957 142.597 39.9167 142.713 39.7726 142.862C39.6284 143.01 39.5192 143.182 39.4448 143.378C39.375 143.573 39.3401 143.782 39.3401 144.005C39.3401 144.224 39.3704 144.438 39.4308 144.647C39.4959 144.852 39.5959 145.035 39.7307 145.198C39.8702 145.356 40.0492 145.484 40.2677 145.582C40.4863 145.679 40.7536 145.728 41.0698 145.728C41.3813 145.728 41.6463 145.679 41.8648 145.582C42.088 145.484 42.267 145.356 42.4019 145.198C42.5413 145.035 42.6413 144.852 42.7017 144.647C42.7668 144.438 42.7994 144.224 42.7994 144.005C42.7994 143.782 42.7622 143.573 42.6878 143.378C42.6181 143.182 42.5111 143.01 42.367 142.862C42.2228 142.713 42.0415 142.597 41.823 142.513C41.6091 142.425 41.358 142.38 41.0698 142.38ZM42.5692 146.237C43.1923 146.423 43.6642 146.723 43.985 147.137C44.3105 147.551 44.4732 148.074 44.4732 148.706C44.4732 149.143 44.3895 149.538 44.2221 149.892C44.0594 150.245 43.8269 150.547 43.5247 150.798C43.2271 151.045 42.8691 151.235 42.4507 151.37C42.0322 151.505 41.5719 151.573 41.0698 151.573C40.5676 151.573 40.1073 151.505 39.6889 151.37C39.2704 151.235 38.9101 151.045 38.6079 150.798C38.3103 150.547 38.0778 150.245 37.9104 149.892C37.7477 149.538 37.6663 149.143 37.6663 148.706C37.6663 148.074 37.8267 147.551 38.1475 147.137C38.473 146.723 38.9473 146.423 39.5703 146.237C39.0542 146.042 38.666 145.751 38.4056 145.365C38.1452 144.975 38.015 144.512 38.015 143.978C38.015 143.606 38.0871 143.259 38.2312 142.938C38.38 142.613 38.5869 142.332 38.852 142.094C39.1216 141.857 39.4448 141.671 39.8214 141.537C40.198 141.402 40.6141 141.334 41.0698 141.334C41.5254 141.334 41.9416 141.402 42.3182 141.537C42.6948 141.671 43.0156 141.857 43.2806 142.094C43.5503 142.332 43.7572 142.613 43.9013 142.938C44.0501 143.259 44.1245 143.606 44.1245 143.978C44.1245 144.512 43.9943 144.975 43.7339 145.365C43.4736 145.751 43.0853 146.042 42.5692 146.237Z" fill="black"/>
<path d="M79.379 144.403C79.379 145.021 79.5464 145.498 79.8811 145.833C80.2159 146.167 80.6808 146.335 81.276 146.335C81.5968 146.335 81.8804 146.284 82.1268 146.181C82.3733 146.074 82.5802 145.935 82.7475 145.763C82.9196 145.586 83.0498 145.384 83.1381 145.156C83.2264 144.924 83.2706 144.682 83.2706 144.431C83.2706 144.129 83.2218 143.857 83.1242 143.615C83.0312 143.368 82.8987 143.162 82.7266 142.994C82.5546 142.822 82.35 142.692 82.1129 142.604C81.8804 142.511 81.6224 142.464 81.3387 142.464C81.0458 142.464 80.7785 142.513 80.5367 142.611C80.2949 142.704 80.088 142.836 79.916 143.008C79.744 143.18 79.6115 143.385 79.5185 143.622C79.4255 143.859 79.379 144.119 79.379 144.403ZM82.1268 147.5C82.3082 147.262 82.4779 147.03 82.636 146.802C82.3849 146.993 82.1036 147.137 81.7921 147.235C81.4852 147.332 81.1574 147.381 80.8087 147.381C80.4414 147.381 80.088 147.318 79.7486 147.193C79.4138 147.067 79.1163 146.883 78.8559 146.642C78.6002 146.395 78.3956 146.093 78.2422 145.735C78.0887 145.377 78.012 144.966 78.012 144.501C78.012 144.064 78.0934 143.652 78.2561 143.266C78.4189 142.88 78.6467 142.545 78.9396 142.262C79.2372 141.974 79.5905 141.748 79.9997 141.585C80.4135 141.418 80.8668 141.334 81.3597 141.334C81.8479 141.334 82.2896 141.413 82.6848 141.571C83.0846 141.73 83.4241 141.953 83.703 142.241C83.982 142.525 84.1982 142.866 84.3516 143.266C84.5051 143.666 84.5818 144.105 84.5818 144.584C84.5818 144.877 84.5539 145.156 84.4981 145.421C84.4469 145.686 84.3702 145.944 84.2679 146.195C84.1703 146.446 84.0494 146.695 83.9053 146.942C83.7658 147.183 83.6054 147.432 83.4241 147.688L81.0179 151.14C80.9528 151.233 80.8575 151.31 80.732 151.37C80.6111 151.431 80.4716 151.461 80.3135 151.461H79.0651L82.1268 147.5Z" fill="black"/>
<path d="M120.699 150.422V151.461H115.287V150.422H117.407V143.859C117.407 143.65 117.414 143.434 117.428 143.21L115.726 144.654C115.661 144.705 115.596 144.738 115.531 144.752C115.466 144.766 115.403 144.768 115.342 144.759C115.287 144.749 115.235 144.731 115.189 144.703C115.147 144.67 115.112 144.638 115.084 144.605L114.659 144.012L117.658 141.425H118.767V150.422H120.699ZM129.348 146.453C129.348 147.328 129.252 148.085 129.062 148.727C128.876 149.369 128.618 149.901 128.288 150.324C127.962 150.743 127.576 151.054 127.13 151.259C126.688 151.463 126.212 151.566 125.7 151.566C125.189 151.566 124.71 151.463 124.264 151.259C123.822 151.054 123.438 150.743 123.113 150.324C122.787 149.901 122.532 149.369 122.346 148.727C122.16 148.085 122.067 147.328 122.067 146.453C122.067 145.579 122.16 144.821 122.346 144.18C122.532 143.534 122.787 143.001 123.113 142.583C123.438 142.16 123.822 141.846 124.264 141.641C124.71 141.437 125.189 141.334 125.7 141.334C126.212 141.334 126.688 141.437 127.13 141.641C127.576 141.846 127.962 142.16 128.288 142.583C128.618 143.001 128.876 143.534 129.062 144.18C129.252 144.821 129.348 145.579 129.348 146.453ZM127.939 146.453C127.939 145.7 127.876 145.07 127.751 144.563C127.63 144.057 127.465 143.65 127.255 143.343C127.051 143.031 126.814 142.811 126.544 142.68C126.274 142.55 125.993 142.485 125.7 142.485C125.407 142.485 125.126 142.55 124.856 142.68C124.587 142.811 124.347 143.031 124.138 143.343C123.933 143.65 123.771 144.057 123.65 144.563C123.529 145.07 123.468 145.7 123.468 146.453C123.468 147.207 123.529 147.837 123.65 148.343C123.771 148.85 123.933 149.257 124.138 149.564C124.347 149.871 124.587 150.089 124.856 150.22C125.126 150.35 125.407 150.415 125.7 150.415C125.993 150.415 126.274 150.35 126.544 150.22C126.814 150.089 127.051 149.871 127.255 149.564C127.465 149.257 127.63 148.85 127.751 148.343C127.876 147.837 127.939 147.207 127.939 146.453Z" fill="black"/>
<path d="M160.995 150.422V151.461H155.583V150.422H157.704V143.859C157.704 143.65 157.711 143.434 157.725 143.21L156.023 144.654C155.958 144.705 155.893 144.738 155.828 144.752C155.762 144.766 155.7 144.768 155.639 144.759C155.583 144.749 155.532 144.731 155.486 144.703C155.444 144.67 155.409 144.638 155.381 144.605L154.956 144.012L157.955 141.425H159.064V150.422H160.995ZM169.087 150.422V151.461H163.675V150.422H165.795V143.859C165.795 143.65 165.802 143.434 165.816 143.21L164.114 144.654C164.049 144.705 163.984 144.738 163.919 144.752C163.854 144.766 163.791 144.768 163.73 144.759C163.675 144.749 163.624 144.731 163.577 144.703C163.535 144.67 163.5 144.638 163.472 144.605L163.047 144.012L166.046 141.425H167.155V150.422L169.087 150.422Z" fill="black"/>
<path d="M201.29 150.422V151.461H195.878V150.422H197.999V143.859C197.999 143.65 198.005 143.434 198.019 143.21L196.318 144.654C196.253 144.705 196.188 144.738 196.122 144.752C196.057 144.766 195.995 144.768 195.934 144.759C195.878 144.749 195.827 144.731 195.781 144.703C195.739 144.67 195.704 144.638 195.676 144.605L195.251 144.012L198.25 141.425H199.358V150.422H201.29ZM209.131 150.171C209.279 150.171 209.396 150.215 209.479 150.303C209.563 150.387 209.605 150.498 209.605 150.638V151.461H202.882V150.994C202.882 150.901 202.9 150.803 202.937 150.701C202.975 150.594 203.037 150.498 203.126 150.415L206.292 147.242C206.557 146.976 206.796 146.721 207.01 146.474C207.224 146.228 207.406 145.984 207.554 145.742C207.703 145.496 207.817 145.245 207.896 144.989C207.98 144.733 208.022 144.463 208.022 144.18C208.022 143.901 207.977 143.657 207.889 143.448C207.801 143.234 207.68 143.057 207.526 142.917C207.373 142.778 207.192 142.673 206.982 142.604C206.773 142.534 206.548 142.499 206.306 142.499C206.064 142.499 205.841 142.534 205.636 142.604C205.436 142.673 205.257 142.771 205.099 142.897C204.941 143.022 204.809 143.171 204.702 143.343C204.595 143.515 204.518 143.701 204.472 143.901C204.407 144.078 204.323 144.196 204.221 144.257C204.123 144.317 203.979 144.331 203.788 144.298L203.077 144.173C203.142 143.708 203.27 143.299 203.46 142.945C203.651 142.592 203.891 142.297 204.179 142.06C204.467 141.818 204.797 141.637 205.169 141.516C205.546 141.395 205.95 141.334 206.383 141.334C206.82 141.334 207.222 141.399 207.589 141.53C207.961 141.655 208.282 141.839 208.552 142.081C208.821 142.322 209.033 142.618 209.186 142.966C209.34 143.31 209.416 143.701 209.416 144.138C209.416 144.51 209.361 144.856 209.249 145.177C209.142 145.493 208.993 145.796 208.803 146.084C208.617 146.372 208.398 146.653 208.147 146.928C207.901 147.197 207.638 147.472 207.359 147.751L204.82 150.345C205.016 150.294 205.211 150.252 205.406 150.22C205.606 150.187 205.795 150.171 205.971 150.171H209.131Z" fill="black"/>
<path d="M241.585 150.422V151.461H236.173V150.422H238.293V143.859C238.293 143.65 238.3 143.434 238.314 143.21L236.613 144.654C236.548 144.705 236.482 144.738 236.417 144.752C236.352 144.766 236.289 144.768 236.229 144.759C236.173 144.749 236.122 144.731 236.076 144.703C236.034 144.67 235.999 144.638 235.971 144.605L235.546 144.012L238.545 141.425H239.653V150.422H241.585ZM243.414 144.173C243.483 143.708 243.614 143.299 243.804 142.945C243.995 142.592 244.234 142.297 244.523 142.06C244.811 141.818 245.141 141.637 245.513 141.516C245.89 141.395 246.294 141.334 246.726 141.334C247.159 141.334 247.556 141.397 247.919 141.523C248.282 141.643 248.591 141.818 248.847 142.046C249.107 142.269 249.309 142.539 249.453 142.855C249.597 143.171 249.67 143.52 249.67 143.901C249.67 144.222 249.63 144.505 249.551 144.752C249.472 144.998 249.358 145.214 249.209 145.4C249.065 145.586 248.888 145.744 248.679 145.875C248.47 146 248.235 146.105 247.975 146.188C248.612 146.365 249.091 146.653 249.412 147.053C249.732 147.448 249.893 147.951 249.893 148.56C249.893 149.029 249.804 149.452 249.628 149.829C249.451 150.201 249.209 150.517 248.902 150.777C248.596 151.033 248.238 151.231 247.828 151.37C247.424 151.505 246.991 151.573 246.531 151.573C246.006 151.573 245.555 151.51 245.178 151.384C244.802 151.254 244.481 151.075 244.216 150.847C243.951 150.615 243.73 150.338 243.553 150.017C243.381 149.692 243.235 149.336 243.114 148.95L243.707 148.699C243.86 148.634 244.009 148.615 244.153 148.643C244.297 148.671 244.402 148.753 244.467 148.887C244.536 149.027 244.616 149.185 244.704 149.362C244.797 149.534 244.92 149.699 245.074 149.857C245.227 150.01 245.418 150.14 245.645 150.247C245.878 150.354 246.168 150.408 246.517 150.408C246.852 150.408 247.145 150.354 247.396 150.247C247.647 150.136 247.856 149.994 248.024 149.822C248.191 149.645 248.317 149.45 248.4 149.236C248.484 149.022 248.526 148.811 248.526 148.601C248.526 148.341 248.493 148.102 248.428 147.883C248.363 147.665 248.238 147.479 248.052 147.325C247.87 147.167 247.617 147.044 247.291 146.956C246.966 146.867 246.543 146.823 246.022 146.823V145.833C246.45 145.828 246.81 145.784 247.103 145.7C247.401 145.617 247.64 145.5 247.821 145.351C248.003 145.203 248.133 145.026 248.212 144.821C248.296 144.617 248.337 144.389 248.337 144.138C248.337 143.864 248.296 143.624 248.212 143.42C248.128 143.215 248.01 143.045 247.856 142.91C247.707 142.771 247.528 142.669 247.319 142.604C247.115 142.534 246.891 142.499 246.65 142.499C246.408 142.499 246.185 142.534 245.98 142.604C245.776 142.673 245.594 142.771 245.436 142.897C245.278 143.022 245.146 143.171 245.039 143.343C244.932 143.515 244.855 143.701 244.808 143.901C244.743 144.078 244.66 144.196 244.557 144.257C244.46 144.317 244.318 144.331 244.132 144.298L243.414 144.173Z" fill="black"/>
<rect x="266.572" y="130.188" width="32.5466" height="32.5466" rx="16.2733" fill="#3D159F"/>
<path d="M281.882 150.422V151.461H276.47V150.422H278.59V143.859C278.59 143.65 278.597 143.434 278.611 143.21L276.91 144.654C276.844 144.705 276.779 144.738 276.714 144.752C276.649 144.766 276.586 144.768 276.526 144.759C276.47 144.749 276.419 144.731 276.372 144.703C276.331 144.67 276.296 144.638 276.268 144.605L275.842 144.012L278.841 141.425H279.95V150.422H281.882ZM287.909 147.806V143.901C287.909 143.766 287.911 143.624 287.916 143.475C287.925 143.322 287.942 143.164 287.965 143.001L284.457 147.806H287.909ZM290.552 147.806V148.595C290.552 148.674 290.527 148.741 290.476 148.797C290.424 148.853 290.352 148.88 290.259 148.88H289.102V151.461H287.909V148.88H283.515C283.413 148.88 283.327 148.853 283.257 148.797C283.187 148.736 283.141 148.662 283.118 148.574L282.978 147.876L287.818 141.439H289.102V147.806H290.552Z" fill="white"/>
<path d="M40.1068 189.168V190.207H34.6947V189.168H36.8149V182.605C36.8149 182.396 36.8219 182.18 36.8358 181.956L35.1341 183.4C35.069 183.451 35.0039 183.484 34.9388 183.498C34.8737 183.512 34.811 183.514 34.7505 183.505C34.6947 183.495 34.6436 183.477 34.5971 183.449C34.5553 183.416 34.5204 183.384 34.4925 183.351L34.0671 182.759L37.066 180.171H38.1749V189.168H40.1068ZM43.6717 183.93C44.1832 183.823 44.6458 183.77 45.0596 183.77C45.5803 183.77 46.0406 183.849 46.4405 184.007C46.8404 184.16 47.1751 184.374 47.4448 184.649C47.7191 184.918 47.9237 185.239 48.0585 185.611C48.198 185.978 48.2678 186.378 48.2678 186.811C48.2678 187.341 48.1748 187.822 47.9888 188.254C47.8028 188.687 47.5471 189.056 47.2216 189.363C46.8962 189.67 46.5102 189.907 46.0639 190.075C45.6222 190.237 45.1456 190.319 44.6342 190.319C44.3319 190.319 44.0437 190.288 43.7694 190.228C43.4997 190.168 43.2463 190.088 43.0092 189.991C42.772 189.889 42.5512 189.772 42.3466 189.642C42.1467 189.512 41.9677 189.375 41.8096 189.231L42.228 188.645C42.3164 188.515 42.4349 188.45 42.5837 188.45C42.6814 188.45 42.7883 188.487 42.9045 188.561C43.0254 188.631 43.1672 188.71 43.33 188.798C43.4927 188.887 43.6857 188.968 43.9088 189.042C44.132 189.112 44.397 189.147 44.7039 189.147C45.0433 189.147 45.3479 189.093 45.6175 188.987C45.8919 188.875 46.122 188.719 46.308 188.519C46.4986 188.319 46.6428 188.08 46.7404 187.801C46.8427 187.522 46.8938 187.213 46.8938 186.873C46.8938 186.571 46.8497 186.299 46.7613 186.057C46.673 185.816 46.5405 185.609 46.3638 185.437C46.1871 185.265 45.9662 185.134 45.7012 185.046C45.4362 184.953 45.127 184.907 44.7736 184.907C44.2808 184.907 43.7554 184.995 43.1975 185.172L42.3396 184.921L43.1556 180.192H47.9539V180.785C47.9539 180.98 47.8911 181.14 47.7656 181.266C47.6447 181.387 47.4401 181.447 47.1519 181.447H44.1041L43.6717 183.93Z" fill="black"/>
<rect x="65.0938" y="168.934" width="32.5466" height="32.5466" rx="16.2733" fill="#3D159F"/>
<path d="M80.4036 189.168V190.207H74.9916V189.168H77.1118V182.605C77.1118 182.396 77.1188 182.18 77.1327 181.956L75.431 183.4C75.3659 183.451 75.3008 183.484 75.2357 183.498C75.1706 183.512 75.1079 183.514 75.0474 183.505C74.9916 183.495 74.9405 183.477 74.894 183.449C74.8521 183.416 74.8173 183.384 74.7894 183.351L74.3639 182.759L77.3629 180.171H78.4718V189.168H80.4036ZM85.3983 189.182C85.7191 189.182 86.0097 189.131 86.2701 189.028C86.5305 188.921 86.7536 188.777 86.9396 188.596C87.1256 188.415 87.2697 188.198 87.372 187.947C87.4743 187.696 87.5255 187.424 87.5255 187.131C87.5255 186.811 87.4743 186.525 87.372 186.274C87.2744 186.018 87.1349 185.802 86.9536 185.625C86.7769 185.448 86.563 185.313 86.3119 185.22C86.0609 185.127 85.7819 185.081 85.475 185.081C85.1542 185.081 84.8659 185.137 84.6102 185.248C84.3545 185.355 84.136 185.502 83.9546 185.688C83.7733 185.869 83.6338 186.083 83.5362 186.329C83.4385 186.576 83.3897 186.834 83.3897 187.103C83.3897 187.41 83.4339 187.692 83.5222 187.947C83.6106 188.203 83.7408 188.422 83.9128 188.603C84.0848 188.784 84.2941 188.926 84.5405 189.028C84.7916 189.131 85.0775 189.182 85.3983 189.182ZM84.7567 183.916C84.6776 184.019 84.5986 184.118 84.5196 184.216C84.4452 184.309 84.3731 184.402 84.3034 184.495C84.5265 184.351 84.773 184.239 85.0426 184.16C85.3169 184.081 85.6122 184.042 85.9284 184.042C86.3236 184.042 86.7002 184.107 87.0582 184.237C87.4162 184.367 87.73 184.558 87.9997 184.809C88.274 185.06 88.4902 185.372 88.6483 185.743C88.8064 186.115 88.8854 186.543 88.8854 187.027C88.8854 187.487 88.8018 187.919 88.6344 188.324C88.467 188.724 88.2299 189.073 87.923 189.37C87.6208 189.663 87.2581 189.896 86.835 190.068C86.4119 190.235 85.9423 190.319 85.4262 190.319C84.9148 190.319 84.4521 190.237 84.0383 190.075C83.6292 189.912 83.2781 189.682 82.9852 189.384C82.6969 189.082 82.4738 188.719 82.3157 188.296C82.1576 187.868 82.0786 187.394 82.0786 186.873C82.0786 186.427 82.1739 185.957 82.3645 185.465C82.5598 184.967 82.8667 184.437 83.2851 183.874L85.7889 180.52C85.8586 180.427 85.9563 180.35 86.0818 180.29C86.2073 180.225 86.3515 180.192 86.5142 180.192H87.7277L84.7567 183.916Z" fill="white"/>
<path d="M120.699 189.168V190.207H115.287V189.168H117.407V182.605C117.407 182.396 117.414 182.18 117.428 181.956L115.726 183.4C115.661 183.451 115.596 183.484 115.531 183.498C115.466 183.512 115.403 183.514 115.342 183.505C115.287 183.495 115.235 183.477 115.189 183.449C115.147 183.416 115.112 183.384 115.084 183.351L114.659 182.759L117.658 180.171H118.767V189.168H120.699ZM129.222 180.192V180.799C129.222 180.975 129.201 181.12 129.159 181.231C129.122 181.338 129.085 181.431 129.048 181.51L124.989 189.726C124.924 189.861 124.833 189.975 124.717 190.068C124.601 190.161 124.445 190.207 124.25 190.207H123.273L127.395 182.11C127.465 181.98 127.534 181.861 127.604 181.754C127.674 181.643 127.751 181.54 127.834 181.447H122.715C122.627 181.447 122.55 181.415 122.485 181.35C122.42 181.285 122.387 181.208 122.387 181.12V180.192H129.222Z" fill="black"/>
<path d="M160.995 189.168V190.207H155.583V189.168H157.704V182.605C157.704 182.396 157.711 182.18 157.725 181.956L156.023 183.4C155.958 183.451 155.893 183.484 155.828 183.498C155.762 183.512 155.7 183.514 155.639 183.505C155.583 183.495 155.532 183.477 155.486 183.449C155.444 183.416 155.409 183.384 155.381 183.351L154.956 182.759L157.955 180.171H159.064V189.168H160.995ZM166.004 189.238C166.32 189.238 166.602 189.193 166.848 189.105C167.094 189.017 167.304 188.894 167.476 188.735C167.648 188.573 167.778 188.38 167.866 188.157C167.955 187.933 167.999 187.689 167.999 187.424C167.999 187.099 167.945 186.82 167.838 186.587C167.731 186.35 167.587 186.157 167.406 186.009C167.225 185.855 167.013 185.743 166.771 185.674C166.529 185.599 166.274 185.562 166.004 185.562C165.73 185.562 165.472 185.599 165.23 185.674C164.988 185.743 164.777 185.855 164.595 186.009C164.414 186.157 164.27 186.35 164.163 186.587C164.061 186.82 164.009 187.099 164.009 187.424C164.009 187.689 164.054 187.933 164.142 188.157C164.23 188.38 164.36 188.573 164.532 188.735C164.705 188.894 164.914 189.017 165.16 189.105C165.407 189.193 165.688 189.238 166.004 189.238ZM166.004 181.127C165.716 181.127 165.462 181.171 165.244 181.259C165.03 181.343 164.851 181.459 164.707 181.608C164.563 181.757 164.453 181.929 164.379 182.124C164.309 182.319 164.274 182.528 164.274 182.752C164.274 182.97 164.305 183.184 164.365 183.393C164.43 183.598 164.53 183.781 164.665 183.944C164.804 184.102 164.983 184.23 165.202 184.328C165.421 184.425 165.688 184.474 166.004 184.474C166.316 184.474 166.581 184.425 166.799 184.328C167.022 184.23 167.201 184.102 167.336 183.944C167.476 183.781 167.576 183.598 167.636 183.393C167.701 183.184 167.734 182.97 167.734 182.752C167.734 182.528 167.696 182.319 167.622 182.124C167.552 181.929 167.445 181.757 167.301 181.608C167.157 181.459 166.976 181.343 166.757 181.259C166.543 181.171 166.292 181.127 166.004 181.127ZM167.504 184.983C168.127 185.169 168.598 185.469 168.919 185.883C169.245 186.297 169.408 186.82 169.408 187.452C169.408 187.889 169.324 188.284 169.156 188.638C168.994 188.991 168.761 189.293 168.459 189.544C168.161 189.791 167.803 189.982 167.385 190.116C166.967 190.251 166.506 190.319 166.004 190.319C165.502 190.319 165.042 190.251 164.623 190.116C164.205 189.982 163.844 189.791 163.542 189.544C163.245 189.293 163.012 188.991 162.845 188.638C162.682 188.284 162.601 187.889 162.601 187.452C162.601 186.82 162.761 186.297 163.082 185.883C163.407 185.469 163.882 185.169 164.505 184.983C163.988 184.788 163.6 184.497 163.34 184.112C163.08 183.721 162.949 183.258 162.949 182.724C162.949 182.352 163.021 182.005 163.166 181.684C163.314 181.359 163.521 181.078 163.786 180.841C164.056 180.603 164.379 180.417 164.756 180.283C165.132 180.148 165.548 180.08 166.004 180.08C166.46 180.08 166.876 180.148 167.252 180.283C167.629 180.417 167.95 180.603 168.215 180.841C168.485 181.078 168.691 181.359 168.836 181.684C168.984 182.005 169.059 182.352 169.059 182.724C169.059 183.258 168.929 183.721 168.668 184.112C168.408 184.497 168.02 184.788 167.504 184.983Z" fill="black"/>
<path d="M201.29 189.168V190.207H195.878V189.168H197.999V182.605C197.999 182.396 198.005 182.18 198.019 181.956L196.318 183.4C196.253 183.451 196.188 183.484 196.122 183.498C196.057 183.512 195.995 183.514 195.934 183.505C195.878 183.495 195.827 183.477 195.781 183.449C195.739 183.416 195.704 183.384 195.676 183.351L195.251 182.759L198.25 180.171H199.358V189.168H201.29ZM204.311 183.149C204.311 183.767 204.479 184.244 204.813 184.579C205.148 184.914 205.613 185.081 206.208 185.081C206.529 185.081 206.813 185.03 207.059 184.928C207.306 184.821 207.513 184.681 207.68 184.509C207.852 184.332 207.982 184.13 208.07 183.902C208.159 183.67 208.203 183.428 208.203 183.177C208.203 182.875 208.154 182.603 208.056 182.361C207.964 182.115 207.831 181.908 207.659 181.74C207.487 181.568 207.282 181.438 207.045 181.35C206.813 181.257 206.555 181.21 206.271 181.21C205.978 181.21 205.711 181.259 205.469 181.357C205.227 181.45 205.02 181.582 204.848 181.754C204.676 181.926 204.544 182.131 204.451 182.368C204.358 182.605 204.311 182.865 204.311 183.149ZM207.059 186.246C207.241 186.009 207.41 185.776 207.568 185.548C207.317 185.739 207.036 185.883 206.724 185.981C206.418 186.078 206.09 186.127 205.741 186.127C205.374 186.127 205.02 186.064 204.681 185.939C204.346 185.813 204.049 185.63 203.788 185.388C203.533 185.141 203.328 184.839 203.175 184.481C203.021 184.123 202.944 183.712 202.944 183.247C202.944 182.81 203.026 182.398 203.188 182.012C203.351 181.626 203.579 181.292 203.872 181.008C204.17 180.72 204.523 180.494 204.932 180.331C205.346 180.164 205.799 180.08 206.292 180.08C206.78 180.08 207.222 180.159 207.617 180.318C208.017 180.476 208.356 180.699 208.635 180.987C208.914 181.271 209.131 181.612 209.284 182.012C209.437 182.412 209.514 182.852 209.514 183.33C209.514 183.623 209.486 183.902 209.43 184.167C209.379 184.432 209.303 184.69 209.2 184.941C209.103 185.193 208.982 185.441 208.838 185.688C208.698 185.929 208.538 186.178 208.356 186.434L205.95 189.886C205.885 189.979 205.79 190.056 205.664 190.116C205.543 190.177 205.404 190.207 205.246 190.207H203.997L207.059 186.246Z" fill="black"/>
<path d="M241.334 188.917C241.483 188.917 241.599 188.961 241.683 189.049C241.767 189.133 241.808 189.245 241.808 189.384V190.207H235.085V189.74C235.085 189.647 235.104 189.549 235.141 189.447C235.178 189.34 235.241 189.245 235.329 189.161L238.496 185.988C238.761 185.723 239 185.467 239.214 185.22C239.428 184.974 239.609 184.73 239.758 184.488C239.907 184.242 240.021 183.991 240.1 183.735C240.183 183.479 240.225 183.21 240.225 182.926C240.225 182.647 240.181 182.403 240.093 182.194C240.004 181.98 239.884 181.803 239.73 181.664C239.577 181.524 239.395 181.419 239.186 181.35C238.977 181.28 238.751 181.245 238.51 181.245C238.268 181.245 238.045 181.28 237.84 181.35C237.64 181.419 237.461 181.517 237.303 181.643C237.145 181.768 237.012 181.917 236.906 182.089C236.799 182.261 236.722 182.447 236.675 182.647C236.61 182.824 236.527 182.942 236.424 183.003C236.327 183.063 236.183 183.077 235.992 183.044L235.281 182.919C235.346 182.454 235.474 182.045 235.664 181.691C235.855 181.338 236.094 181.043 236.382 180.806C236.671 180.564 237.001 180.383 237.373 180.262C237.749 180.141 238.154 180.08 238.586 180.08C239.023 180.08 239.426 180.145 239.793 180.276C240.165 180.401 240.486 180.585 240.755 180.827C241.025 181.068 241.237 181.364 241.39 181.712C241.543 182.056 241.62 182.447 241.62 182.884C241.62 183.256 241.564 183.602 241.453 183.923C241.346 184.239 241.197 184.542 241.006 184.83C240.82 185.118 240.602 185.399 240.351 185.674C240.104 185.943 239.842 186.218 239.563 186.497L237.024 189.091C237.219 189.04 237.415 188.998 237.61 188.966C237.81 188.933 237.998 188.917 238.175 188.917H241.334ZM250.234 185.2C250.234 186.074 250.139 186.831 249.949 187.473C249.763 188.115 249.504 188.647 249.174 189.07C248.849 189.489 248.463 189.8 248.017 190.005C247.575 190.209 247.098 190.312 246.587 190.312C246.075 190.312 245.597 190.209 245.15 190.005C244.709 189.8 244.325 189.489 243.999 189.07C243.674 188.647 243.418 188.115 243.232 187.473C243.046 186.831 242.953 186.074 242.953 185.2C242.953 184.325 243.046 183.568 243.232 182.926C243.418 182.28 243.674 181.747 243.999 181.329C244.325 180.906 244.709 180.592 245.15 180.387C245.597 180.183 246.075 180.08 246.587 180.08C247.098 180.08 247.575 180.183 248.017 180.387C248.463 180.592 248.849 180.906 249.174 181.329C249.504 181.747 249.763 182.28 249.949 182.926C250.139 183.568 250.234 184.325 250.234 185.2ZM248.826 185.2C248.826 184.446 248.763 183.816 248.637 183.309C248.516 182.803 248.351 182.396 248.142 182.089C247.938 181.777 247.7 181.557 247.431 181.426C247.161 181.296 246.88 181.231 246.587 181.231C246.294 181.231 246.013 181.296 245.743 181.426C245.473 181.557 245.234 181.777 245.025 182.089C244.82 182.396 244.657 182.803 244.536 183.309C244.416 183.816 244.355 184.446 244.355 185.2C244.355 185.953 244.416 186.583 244.536 187.09C244.657 187.596 244.82 188.003 245.025 188.31C245.234 188.617 245.473 188.835 245.743 188.966C246.013 189.096 246.294 189.161 246.587 189.161C246.88 189.161 247.161 189.096 247.431 188.966C247.7 188.835 247.938 188.617 248.142 188.31C248.351 188.003 248.516 187.596 248.637 187.09C248.763 186.583 248.826 185.953 248.826 185.2Z" fill="black"/>
<path d="M281.631 188.917C281.78 188.917 281.896 188.961 281.98 189.049C282.063 189.133 282.105 189.245 282.105 189.384V190.207H275.382V189.74C275.382 189.647 275.401 189.549 275.438 189.447C275.475 189.34 275.538 189.245 275.626 189.161L278.793 185.988C279.058 185.723 279.297 185.467 279.511 185.22C279.725 184.974 279.906 184.73 280.055 184.488C280.204 184.242 280.318 183.991 280.397 183.735C280.48 183.479 280.522 183.21 280.522 182.926C280.522 182.647 280.478 182.403 280.39 182.194C280.301 181.98 280.18 181.803 280.027 181.664C279.874 181.524 279.692 181.419 279.483 181.35C279.274 181.28 279.048 181.245 278.807 181.245C278.565 181.245 278.342 181.28 278.137 181.35C277.937 181.419 277.758 181.517 277.6 181.643C277.442 181.768 277.309 181.917 277.202 182.089C277.095 182.261 277.019 182.447 276.972 182.647C276.907 182.824 276.823 182.942 276.721 183.003C276.624 183.063 276.479 183.077 276.289 183.044L275.577 182.919C275.643 182.454 275.77 182.045 275.961 181.691C276.152 181.338 276.391 181.043 276.679 180.806C276.968 180.564 277.298 180.383 277.67 180.262C278.046 180.141 278.451 180.08 278.883 180.08C279.32 180.08 279.722 180.145 280.09 180.276C280.462 180.401 280.783 180.585 281.052 180.827C281.322 181.068 281.533 181.364 281.687 181.712C281.84 182.056 281.917 182.447 281.917 182.884C281.917 183.256 281.861 183.602 281.75 183.923C281.643 184.239 281.494 184.542 281.303 184.83C281.117 185.118 280.899 185.399 280.648 185.674C280.401 185.943 280.139 186.218 279.86 186.497L277.321 189.091C277.516 189.04 277.712 188.998 277.907 188.966C278.107 188.933 278.295 188.917 278.472 188.917H281.631ZM289.973 189.168V190.207H284.561V189.168H286.682L286.682 182.605C286.682 182.396 286.689 182.18 286.702 181.956L285.001 183.4C284.936 183.451 284.871 183.484 284.805 183.498C284.74 183.512 284.678 183.514 284.617 183.505C284.561 183.495 284.51 183.477 284.464 183.449C284.422 183.416 284.387 183.384 284.359 183.351L283.934 182.759L286.933 180.171H288.042V189.168L289.973 189.168Z" fill="black"/>
<path d="M39.8557 227.663C40.0045 227.663 40.1207 227.707 40.2044 227.795C40.2881 227.879 40.33 227.991 40.33 228.13V228.953H33.6068V228.486C33.6068 228.393 33.6254 228.295 33.6626 228.193C33.6997 228.086 33.7625 227.991 33.8509 227.907L37.0172 224.734C37.2822 224.469 37.5216 224.213 37.7355 223.967C37.9494 223.72 38.1307 223.476 38.2795 223.234C38.4283 222.988 38.5422 222.737 38.6213 222.481C38.7049 222.225 38.7468 221.956 38.7468 221.672C38.7468 221.393 38.7026 221.149 38.6143 220.94C38.5259 220.726 38.4051 220.549 38.2516 220.41C38.0982 220.27 37.9169 220.166 37.7076 220.096C37.4984 220.026 37.2729 219.991 37.0311 219.991C36.7893 219.991 36.5662 220.026 36.3616 220.096C36.1617 220.166 35.9827 220.263 35.8246 220.389C35.6665 220.514 35.534 220.663 35.427 220.835C35.3201 221.007 35.2434 221.193 35.1969 221.393C35.1318 221.57 35.0481 221.688 34.9458 221.749C34.8482 221.809 34.704 221.823 34.5134 221.791L33.802 221.665C33.8671 221.2 33.995 220.791 34.1856 220.438C34.3763 220.084 34.6157 219.789 34.904 219.552C35.1922 219.31 35.5224 219.129 35.8943 219.008C36.2709 218.887 36.6754 218.826 37.1078 218.826C37.5449 218.826 37.9471 218.892 38.3144 219.022C38.6863 219.147 39.0072 219.331 39.2768 219.573C39.5465 219.815 39.7581 220.11 39.9115 220.458C40.0649 220.803 40.1416 221.193 40.1416 221.63C40.1416 222.002 40.0859 222.348 39.9743 222.669C39.8673 222.985 39.7185 223.288 39.5279 223.576C39.3419 223.864 39.1234 224.146 38.8723 224.42C38.6259 224.69 38.3632 224.964 38.0842 225.243L35.5456 227.837C35.7409 227.786 35.9362 227.744 36.1314 227.712C36.3314 227.679 36.5197 227.663 36.6964 227.663H39.8557ZM47.9469 227.663C48.0957 227.663 48.212 227.707 48.2957 227.795C48.3793 227.879 48.4212 227.991 48.4212 228.13V228.953H41.698V228.486C41.698 228.393 41.7166 228.295 41.7538 228.193C41.791 228.086 41.8538 227.991 41.9421 227.907L45.1084 224.734C45.3734 224.469 45.6129 224.213 45.8268 223.967C46.0406 223.72 46.222 223.476 46.3708 223.234C46.5195 222.988 46.6335 222.737 46.7125 222.481C46.7962 222.225 46.838 221.956 46.838 221.672C46.838 221.393 46.7939 221.149 46.7055 220.94C46.6172 220.726 46.4963 220.549 46.3429 220.41C46.1894 220.27 46.0081 220.166 45.7989 220.096C45.5896 220.026 45.3641 219.991 45.1224 219.991C44.8806 219.991 44.6574 220.026 44.4528 220.096C44.2529 220.166 44.0739 220.263 43.9158 220.389C43.7577 220.514 43.6252 220.663 43.5183 220.835C43.4113 221.007 43.3346 221.193 43.2881 221.393C43.223 221.57 43.1393 221.688 43.0371 221.749C42.9394 221.809 42.7953 221.823 42.6047 221.791L41.8933 221.665C41.9584 221.2 42.0862 220.791 42.2769 220.438C42.4675 220.084 42.7069 219.789 42.9952 219.552C43.2835 219.31 43.6136 219.129 43.9856 219.008C44.3622 218.887 44.7667 218.826 45.1991 218.826C45.6361 218.826 46.0383 218.892 46.4056 219.022C46.7776 219.147 47.0984 219.331 47.3681 219.573C47.6377 219.815 47.8493 220.11 48.0027 220.458C48.1562 220.803 48.2329 221.193 48.2329 221.63C48.2329 222.002 48.1771 222.348 48.0655 222.669C47.9586 222.985 47.8098 223.288 47.6192 223.576C47.4332 223.864 47.2146 224.146 46.9636 224.42C46.7171 224.69 46.4544 224.964 46.1755 225.243L43.6368 227.837C43.8321 227.786 44.0274 227.744 44.2227 227.712C44.4226 227.679 44.6109 227.663 44.7876 227.663H47.9469Z" fill="black"/>
<path d="M80.1526 227.663C80.3014 227.663 80.4176 227.707 80.5013 227.795C80.585 227.879 80.6268 227.991 80.6268 228.13V228.953H73.9036V228.486C73.9036 228.393 73.9222 228.295 73.9594 228.193C73.9966 228.086 74.0594 227.991 74.1477 227.907L77.314 224.734C77.5791 224.469 77.8185 224.213 78.0324 223.967C78.2463 223.72 78.4276 223.476 78.5764 223.234C78.7252 222.988 78.8391 222.737 78.9181 222.481C79.0018 222.225 79.0437 221.956 79.0437 221.672C79.0437 221.393 78.9995 221.149 78.9112 220.94C78.8228 220.726 78.7019 220.549 78.5485 220.41C78.3951 220.27 78.2137 220.166 78.0045 220.096C77.7953 220.026 77.5698 219.991 77.328 219.991C77.0862 219.991 76.863 220.026 76.6585 220.096C76.4585 220.166 76.2795 220.263 76.1214 220.389C75.9634 220.514 75.8309 220.663 75.7239 220.835C75.617 221.007 75.5403 221.193 75.4938 221.393C75.4287 221.57 75.345 221.688 75.2427 221.749C75.1451 221.809 75.0009 221.823 74.8103 221.791L74.0989 221.665C74.164 221.2 74.2919 220.791 74.4825 220.438C74.6731 220.084 74.9126 219.789 75.2008 219.552C75.4891 219.31 75.8192 219.129 76.1912 219.008C76.5678 218.887 76.9723 218.826 77.4047 218.826C77.8418 218.826 78.244 218.892 78.6113 219.022C78.9832 219.147 79.304 219.331 79.5737 219.573C79.8434 219.815 80.0549 220.11 80.2084 220.458C80.3618 220.803 80.4385 221.193 80.4385 221.63C80.4385 222.002 80.3827 222.348 80.2711 222.669C80.1642 222.985 80.0154 223.288 79.8248 223.576C79.6388 223.864 79.4203 224.146 79.1692 224.42C78.9228 224.69 78.6601 224.964 78.3811 225.243L75.8425 227.837C76.0378 227.786 76.233 227.744 76.4283 227.712C76.6282 227.679 76.8166 227.663 76.9932 227.663H80.1526ZM82.232 221.665C82.3017 221.2 82.4319 220.791 82.6226 220.438C82.8132 220.084 83.0526 219.789 83.3409 219.552C83.6292 219.31 83.9593 219.129 84.3313 219.008C84.7079 218.887 85.1124 218.826 85.5448 218.826C85.9772 218.826 86.3747 218.889 86.7374 219.015C87.1 219.136 87.4092 219.31 87.665 219.538C87.9253 219.761 88.1276 220.031 88.2717 220.347C88.4158 220.663 88.4879 221.012 88.4879 221.393C88.4879 221.714 88.4484 221.997 88.3694 222.244C88.2903 222.49 88.1764 222.707 88.0276 222.892C87.8835 223.078 87.7068 223.237 87.4976 223.367C87.2883 223.492 87.0535 223.597 86.7932 223.681C87.4302 223.857 87.9091 224.146 88.2299 224.545C88.5507 224.941 88.7111 225.443 88.7111 226.052C88.7111 226.521 88.6228 226.945 88.4461 227.321C88.2694 227.693 88.0276 228.009 87.7207 228.27C87.4139 228.525 87.0559 228.723 86.6467 228.862C86.2422 228.997 85.8098 229.065 85.3495 229.065C84.8241 229.065 84.3731 229.002 83.9965 228.876C83.6199 228.746 83.2991 228.567 83.034 228.339C82.769 228.107 82.5482 227.83 82.3715 227.509C82.1995 227.184 82.053 226.828 81.9321 226.442L82.5249 226.191C82.6783 226.126 82.8271 226.108 82.9713 226.136C83.1154 226.163 83.22 226.245 83.2851 226.38C83.3549 226.519 83.4339 226.677 83.5222 226.854C83.6152 227.026 83.7384 227.191 83.8919 227.349C84.0453 227.502 84.2359 227.633 84.4638 227.74C84.6962 227.847 84.9868 227.9 85.3355 227.9C85.6703 227.9 85.9632 227.847 86.2143 227.74C86.4654 227.628 86.6746 227.486 86.842 227.314C87.0094 227.137 87.1349 226.942 87.2186 226.728C87.3023 226.514 87.3441 226.303 87.3441 226.094C87.3441 225.833 87.3116 225.594 87.2465 225.375C87.1814 225.157 87.0559 224.971 86.8699 224.817C86.6886 224.659 86.4352 224.536 86.1097 224.448C85.7842 224.359 85.3611 224.315 84.8404 224.315V223.325C85.2681 223.32 85.6285 223.276 85.9214 223.192C86.219 223.109 86.4584 222.992 86.6397 222.844C86.8211 222.695 86.9513 222.518 87.0303 222.314C87.114 222.109 87.1558 221.881 87.1558 221.63C87.1558 221.356 87.114 221.116 87.0303 220.912C86.9466 220.707 86.828 220.538 86.6746 220.403C86.5258 220.263 86.3468 220.161 86.1376 220.096C85.933 220.026 85.7098 219.991 85.4681 219.991C85.2263 219.991 85.0031 220.026 84.7985 220.096C84.5939 220.166 84.4126 220.263 84.2545 220.389C84.0965 220.514 83.9639 220.663 83.857 220.835C83.7501 221.007 83.6733 221.193 83.6269 221.393C83.5618 221.57 83.4781 221.688 83.3758 221.749C83.2781 221.809 83.1363 221.823 82.9503 221.791L82.232 221.665Z" fill="black"/>
<path d="M120.447 227.663C120.596 227.663 120.713 227.707 120.796 227.795C120.88 227.879 120.922 227.991 120.922 228.13V228.953H114.199V228.486C114.199 228.393 114.217 228.295 114.254 228.193C114.292 228.086 114.354 227.991 114.443 227.907L117.609 224.734C117.874 224.469 118.113 224.213 118.327 223.967C118.541 223.72 118.723 223.476 118.871 223.234C119.02 222.988 119.134 222.737 119.213 222.481C119.297 222.225 119.339 221.956 119.339 221.672C119.339 221.393 119.294 221.149 119.206 220.94C119.118 220.726 118.997 220.549 118.843 220.41C118.69 220.27 118.509 220.166 118.299 220.096C118.09 220.026 117.865 219.991 117.623 219.991C117.381 219.991 117.158 220.026 116.953 220.096C116.753 220.166 116.574 220.263 116.416 220.389C116.258 220.514 116.126 220.663 116.019 220.835C115.912 221.007 115.835 221.193 115.789 221.393C115.724 221.57 115.64 221.688 115.538 221.749C115.44 221.809 115.296 221.823 115.105 221.791L114.394 221.665C114.459 221.2 114.587 220.791 114.777 220.438C114.968 220.084 115.207 219.789 115.496 219.552C115.784 219.31 116.114 219.129 116.486 219.008C116.863 218.887 117.267 218.826 117.7 218.826C118.137 218.826 118.539 218.892 118.906 219.022C119.278 219.147 119.599 219.331 119.869 219.573C120.138 219.815 120.35 220.11 120.503 220.458C120.657 220.803 120.733 221.193 120.733 221.63C120.733 222.002 120.678 222.348 120.566 222.669C120.459 222.985 120.31 223.288 120.12 223.576C119.934 223.864 119.715 224.146 119.464 224.42C119.218 224.69 118.955 224.964 118.676 225.243L116.137 227.837C116.333 227.786 116.528 227.744 116.723 227.712C116.923 227.679 117.111 227.663 117.288 227.663H120.447ZM126.725 225.299V221.393C126.725 221.258 126.728 221.116 126.732 220.968C126.742 220.814 126.758 220.656 126.781 220.493L123.273 225.299H126.725ZM129.369 225.299V226.087C129.369 226.166 129.343 226.233 129.292 226.289C129.241 226.345 129.169 226.373 129.076 226.373H127.918V228.953H126.725V226.373H122.332C122.229 226.373 122.143 226.345 122.074 226.289C122.004 226.229 121.957 226.154 121.934 226.066L121.795 225.368L126.635 218.931H127.918V225.299H129.369Z" fill="black"/>
<path d="M160.744 227.663C160.893 227.663 161.009 227.707 161.093 227.795C161.177 227.879 161.219 227.991 161.219 228.13V228.953H154.495V228.486C154.495 228.393 154.514 228.295 154.551 228.193C154.588 228.086 154.651 227.991 154.74 227.907L157.906 224.734C158.171 224.469 158.41 224.213 158.624 223.967C158.838 223.72 159.019 223.476 159.168 223.234C159.317 222.988 159.431 222.737 159.51 222.481C159.594 222.225 159.635 221.956 159.635 221.672C159.635 221.393 159.591 221.149 159.503 220.94C159.415 220.726 159.294 220.549 159.14 220.41C158.987 220.27 158.806 220.166 158.596 220.096C158.387 220.026 158.162 219.991 157.92 219.991C157.678 219.991 157.455 220.026 157.25 220.096C157.05 220.166 156.871 220.263 156.713 220.389C156.555 220.514 156.423 220.663 156.316 220.835C156.209 221.007 156.132 221.193 156.086 221.393C156.02 221.57 155.937 221.688 155.834 221.749C155.737 221.809 155.593 221.823 155.402 221.791L154.691 221.665C154.756 221.2 154.884 220.791 155.074 220.438C155.265 220.084 155.504 219.789 155.793 219.552C156.081 219.31 156.411 219.129 156.783 219.008C157.16 218.887 157.564 218.826 157.997 218.826C158.434 218.826 158.836 218.892 159.203 219.022C159.575 219.147 159.896 219.331 160.166 219.573C160.435 219.815 160.647 220.11 160.8 220.458C160.954 220.803 161.03 221.193 161.03 221.63C161.03 222.002 160.975 222.348 160.863 222.669C160.756 222.985 160.607 223.288 160.417 223.576C160.231 223.864 160.012 224.146 159.761 224.42C159.515 224.69 159.252 224.964 158.973 225.243L156.434 227.837C156.63 227.786 156.825 227.744 157.02 227.712C157.22 227.679 157.408 227.663 157.585 227.663H160.744ZM164.56 222.676C165.072 222.569 165.534 222.516 165.948 222.516C166.469 222.516 166.929 222.595 167.329 222.753C167.729 222.906 168.064 223.12 168.333 223.395C168.608 223.664 168.812 223.985 168.947 224.357C169.087 224.724 169.156 225.124 169.156 225.557C169.156 226.087 169.063 226.568 168.877 227C168.691 227.433 168.436 227.802 168.11 228.109C167.785 228.416 167.399 228.653 166.953 228.821C166.511 228.983 166.034 229.065 165.523 229.065C165.221 229.065 164.932 229.034 164.658 228.974C164.388 228.914 164.135 228.835 163.898 228.737C163.661 228.635 163.44 228.518 163.235 228.388C163.035 228.258 162.856 228.121 162.698 227.977L163.117 227.391C163.205 227.261 163.324 227.196 163.472 227.196C163.57 227.196 163.677 227.233 163.793 227.307C163.914 227.377 164.056 227.456 164.219 227.544C164.381 227.633 164.574 227.714 164.798 227.788C165.021 227.858 165.286 227.893 165.593 227.893C165.932 227.893 166.237 227.84 166.506 227.733C166.781 227.621 167.011 227.465 167.197 227.265C167.387 227.065 167.531 226.826 167.629 226.547C167.731 226.268 167.782 225.959 167.782 225.619C167.782 225.317 167.738 225.045 167.65 224.803C167.562 224.562 167.429 224.355 167.252 224.183C167.076 224.011 166.855 223.881 166.59 223.792C166.325 223.699 166.016 223.653 165.662 223.653C165.169 223.653 164.644 223.741 164.086 223.918L163.228 223.667L164.044 218.938H168.843V219.531C168.843 219.726 168.78 219.887 168.654 220.012C168.533 220.133 168.329 220.193 168.041 220.193H164.993L164.56 222.676Z" fill="black"/>
<path d="M201.039 227.663C201.188 227.663 201.304 227.707 201.388 227.795C201.472 227.879 201.514 227.991 201.514 228.13V228.953H194.79V228.486C194.79 228.393 194.809 228.295 194.846 228.193C194.883 228.086 194.946 227.991 195.034 227.907L198.201 224.734C198.466 224.469 198.705 224.213 198.919 223.967C199.133 223.72 199.314 223.476 199.463 223.234C199.612 222.988 199.726 222.737 199.805 222.481C199.889 222.225 199.93 221.956 199.93 221.672C199.93 221.393 199.886 221.149 199.798 220.94C199.71 220.726 199.589 220.549 199.435 220.41C199.282 220.27 199.1 220.166 198.891 220.096C198.682 220.026 198.456 219.991 198.215 219.991C197.973 219.991 197.75 220.026 197.545 220.096C197.345 220.166 197.166 220.263 197.008 220.389C196.85 220.514 196.718 220.663 196.611 220.835C196.504 221.007 196.427 221.193 196.38 221.393C196.315 221.57 196.232 221.688 196.129 221.749C196.032 221.809 195.888 221.823 195.697 221.791L194.986 221.665C195.051 221.2 195.179 220.791 195.369 220.438C195.56 220.084 195.799 219.789 196.088 219.552C196.376 219.31 196.706 219.129 197.078 219.008C197.455 218.887 197.859 218.826 198.291 218.826C198.728 218.826 199.131 218.892 199.498 219.022C199.87 219.147 200.191 219.331 200.46 219.573C200.73 219.815 200.942 220.11 201.095 220.458C201.249 220.803 201.325 221.193 201.325 221.63C201.325 222.002 201.269 222.348 201.158 222.669C201.051 222.985 200.902 223.288 200.712 223.576C200.526 223.864 200.307 224.146 200.056 224.42C199.809 224.69 199.547 224.964 199.268 225.243L196.729 227.837C196.924 227.786 197.12 227.744 197.315 227.712C197.515 227.679 197.703 227.663 197.88 227.663H201.039ZM206.285 227.928C206.606 227.928 206.896 227.877 207.157 227.774C207.417 227.668 207.64 227.523 207.826 227.342C208.012 227.161 208.156 226.945 208.259 226.693C208.361 226.442 208.412 226.17 208.412 225.877C208.412 225.557 208.361 225.271 208.259 225.02C208.161 224.764 208.022 224.548 207.84 224.371C207.664 224.194 207.45 224.06 207.199 223.967C206.948 223.874 206.669 223.827 206.362 223.827C206.041 223.827 205.753 223.883 205.497 223.994C205.241 224.101 205.023 224.248 204.841 224.434C204.66 224.615 204.521 224.829 204.423 225.075C204.325 225.322 204.276 225.58 204.276 225.85C204.276 226.156 204.321 226.438 204.409 226.693C204.497 226.949 204.627 227.168 204.8 227.349C204.972 227.53 205.181 227.672 205.427 227.774C205.678 227.877 205.964 227.928 206.285 227.928ZM205.643 222.662C205.564 222.765 205.485 222.865 205.406 222.962C205.332 223.055 205.26 223.148 205.19 223.241C205.413 223.097 205.66 222.985 205.929 222.906C206.204 222.827 206.499 222.788 206.815 222.788C207.21 222.788 207.587 222.853 207.945 222.983C208.303 223.113 208.617 223.304 208.886 223.555C209.161 223.806 209.377 224.118 209.535 224.49C209.693 224.862 209.772 225.289 209.772 225.773C209.772 226.233 209.688 226.666 209.521 227.07C209.354 227.47 209.117 227.819 208.81 228.116C208.507 228.409 208.145 228.642 207.722 228.814C207.299 228.981 206.829 229.065 206.313 229.065C205.801 229.065 205.339 228.983 204.925 228.821C204.516 228.658 204.165 228.428 203.872 228.13C203.584 227.828 203.36 227.465 203.202 227.042C203.044 226.614 202.965 226.14 202.965 225.619C202.965 225.173 203.061 224.703 203.251 224.211C203.447 223.713 203.753 223.183 204.172 222.62L206.676 219.266C206.745 219.173 206.843 219.096 206.969 219.036C207.094 218.971 207.238 218.938 207.401 218.938H208.614L205.643 222.662Z" fill="black"/>
<path d="M241.334 227.663C241.483 227.663 241.599 227.707 241.683 227.795C241.767 227.879 241.808 227.991 241.808 228.13V228.953H235.085V228.486C235.085 228.393 235.104 228.295 235.141 228.193C235.178 228.086 235.241 227.991 235.329 227.907L238.496 224.734C238.761 224.469 239 224.213 239.214 223.967C239.428 223.72 239.609 223.476 239.758 223.234C239.907 222.988 240.021 222.737 240.1 222.481C240.183 222.225 240.225 221.956 240.225 221.672C240.225 221.393 240.181 221.149 240.093 220.94C240.004 220.726 239.884 220.549 239.73 220.41C239.577 220.27 239.395 220.166 239.186 220.096C238.977 220.026 238.751 219.991 238.51 219.991C238.268 219.991 238.045 220.026 237.84 220.096C237.64 220.166 237.461 220.263 237.303 220.389C237.145 220.514 237.012 220.663 236.906 220.835C236.799 221.007 236.722 221.193 236.675 221.393C236.61 221.57 236.527 221.688 236.424 221.749C236.327 221.809 236.183 221.823 235.992 221.791L235.281 221.665C235.346 221.2 235.474 220.791 235.664 220.438C235.855 220.084 236.094 219.789 236.382 219.552C236.671 219.31 237.001 219.129 237.373 219.008C237.749 218.887 238.154 218.826 238.586 218.826C239.023 218.826 239.426 218.892 239.793 219.022C240.165 219.147 240.486 219.331 240.755 219.573C241.025 219.815 241.237 220.11 241.39 220.458C241.543 220.803 241.62 221.193 241.62 221.63C241.62 222.002 241.564 222.348 241.453 222.669C241.346 222.985 241.197 223.288 241.006 223.576C240.82 223.864 240.602 224.146 240.351 224.42C240.104 224.69 239.842 224.964 239.563 225.243L237.024 227.837C237.219 227.786 237.415 227.744 237.61 227.712C237.81 227.679 237.998 227.663 238.175 227.663H241.334ZM250.109 218.938V219.545C250.109 219.722 250.088 219.866 250.046 219.977C250.009 220.084 249.972 220.177 249.935 220.256L245.876 228.472C245.81 228.607 245.72 228.721 245.604 228.814C245.487 228.907 245.332 228.953 245.136 228.953H244.16L248.282 220.856C248.351 220.726 248.421 220.607 248.491 220.5C248.561 220.389 248.637 220.286 248.721 220.193H243.602C243.514 220.193 243.437 220.161 243.372 220.096C243.307 220.031 243.274 219.954 243.274 219.866V218.938H250.109Z" fill="black"/>
<path d="M281.631 227.663C281.78 227.663 281.896 227.707 281.98 227.795C282.063 227.879 282.105 227.991 282.105 228.13V228.953H275.382V228.486C275.382 228.393 275.401 228.295 275.438 228.193C275.475 228.086 275.538 227.991 275.626 227.907L278.793 224.734C279.058 224.469 279.297 224.213 279.511 223.967C279.725 223.72 279.906 223.476 280.055 223.234C280.204 222.988 280.318 222.737 280.397 222.481C280.48 222.225 280.522 221.956 280.522 221.672C280.522 221.393 280.478 221.149 280.39 220.94C280.301 220.726 280.18 220.549 280.027 220.41C279.874 220.27 279.692 220.166 279.483 220.096C279.274 220.026 279.048 219.991 278.807 219.991C278.565 219.991 278.342 220.026 278.137 220.096C277.937 220.166 277.758 220.263 277.6 220.389C277.442 220.514 277.309 220.663 277.202 220.835C277.095 221.007 277.019 221.193 276.972 221.393C276.907 221.57 276.823 221.688 276.721 221.749C276.624 221.809 276.479 221.823 276.289 221.791L275.577 221.665C275.643 221.2 275.77 220.791 275.961 220.438C276.152 220.084 276.391 219.789 276.679 219.552C276.968 219.31 277.298 219.129 277.67 219.008C278.046 218.887 278.451 218.826 278.883 218.826C279.32 218.826 279.722 218.892 280.09 219.022C280.462 219.147 280.783 219.331 281.052 219.573C281.322 219.815 281.533 220.11 281.687 220.458C281.84 220.803 281.917 221.193 281.917 221.63C281.917 222.002 281.861 222.348 281.75 222.669C281.643 222.985 281.494 223.288 281.303 223.576C281.117 223.864 280.899 224.146 280.648 224.42C280.401 224.69 280.139 224.964 279.86 225.243L277.321 227.837C277.516 227.786 277.712 227.744 277.907 227.712C278.107 227.679 278.295 227.663 278.472 227.663H281.631ZM286.891 227.984C287.207 227.984 287.488 227.94 287.735 227.851C287.981 227.763 288.19 227.64 288.362 227.482C288.534 227.319 288.665 227.126 288.753 226.903C288.841 226.68 288.885 226.435 288.885 226.17C288.885 225.845 288.832 225.566 288.725 225.333C288.618 225.096 288.474 224.903 288.293 224.755C288.111 224.601 287.9 224.49 287.658 224.42C287.416 224.345 287.16 224.308 286.891 224.308C286.616 224.308 286.358 224.345 286.117 224.42C285.875 224.49 285.663 224.601 285.482 224.755C285.301 224.903 285.157 225.096 285.05 225.333C284.947 225.566 284.896 225.845 284.896 226.17C284.896 226.435 284.94 226.68 285.029 226.903C285.117 227.126 285.247 227.319 285.419 227.482C285.591 227.64 285.8 227.763 286.047 227.851C286.293 227.94 286.575 227.984 286.891 227.984ZM286.891 219.873C286.603 219.873 286.349 219.917 286.131 220.005C285.917 220.089 285.738 220.205 285.594 220.354C285.449 220.503 285.34 220.675 285.266 220.87C285.196 221.065 285.161 221.274 285.161 221.498C285.161 221.716 285.191 221.93 285.252 222.139C285.317 222.344 285.417 222.527 285.552 222.69C285.691 222.848 285.87 222.976 286.089 223.074C286.307 223.171 286.575 223.22 286.891 223.22C287.202 223.22 287.467 223.171 287.686 223.074C287.909 222.976 288.088 222.848 288.223 222.69C288.362 222.527 288.462 222.344 288.523 222.139C288.588 221.93 288.62 221.716 288.62 221.498C288.62 221.274 288.583 221.065 288.509 220.87C288.439 220.675 288.332 220.503 288.188 220.354C288.044 220.205 287.863 220.089 287.644 220.005C287.43 219.917 287.179 219.873 286.891 219.873ZM288.39 223.729C289.013 223.915 289.485 224.215 289.806 224.629C290.131 225.043 290.294 225.566 290.294 226.198C290.294 226.635 290.211 227.031 290.043 227.384C289.88 227.737 289.648 228.039 289.346 228.291C289.048 228.537 288.69 228.728 288.272 228.862C287.853 228.997 287.393 229.065 286.891 229.065C286.389 229.065 285.928 228.997 285.51 228.862C285.091 228.728 284.731 228.537 284.429 228.291C284.131 228.039 283.899 227.737 283.731 227.384C283.569 227.031 283.487 226.635 283.487 226.198C283.487 225.566 283.648 225.043 283.969 224.629C284.294 224.215 284.768 223.915 285.391 223.729C284.875 223.534 284.487 223.244 284.227 222.858C283.966 222.467 283.836 222.004 283.836 221.47C283.836 221.098 283.908 220.751 284.052 220.431C284.201 220.105 284.408 219.824 284.673 219.587C284.943 219.35 285.266 219.164 285.642 219.029C286.019 218.894 286.435 218.826 286.891 218.826C287.346 218.826 287.763 218.894 288.139 219.029C288.516 219.164 288.837 219.35 289.102 219.587C289.371 219.824 289.578 220.105 289.722 220.431C289.871 220.751 289.946 221.098 289.946 221.47C289.946 222.004 289.815 222.467 289.555 222.858C289.295 223.244 288.906 223.534 288.39 223.729Z" fill="black"/>
<path d="M39.8557 266.409C40.0045 266.409 40.1207 266.453 40.2044 266.541C40.2881 266.625 40.33 266.737 40.33 266.876V267.699H33.6068V267.232C33.6068 267.139 33.6254 267.041 33.6626 266.939C33.6997 266.832 33.7625 266.737 33.8509 266.653L37.0172 263.48C37.2822 263.215 37.5216 262.959 37.7355 262.713C37.9494 262.466 38.1307 262.222 38.2795 261.98C38.4283 261.734 38.5422 261.483 38.6213 261.227C38.7049 260.971 38.7468 260.702 38.7468 260.418C38.7468 260.139 38.7026 259.895 38.6143 259.686C38.5259 259.472 38.4051 259.295 38.2516 259.156C38.0982 259.016 37.9169 258.912 37.7076 258.842C37.4984 258.772 37.2729 258.737 37.0311 258.737C36.7893 258.737 36.5662 258.772 36.3616 258.842C36.1617 258.912 35.9827 259.009 35.8246 259.135C35.6665 259.26 35.534 259.409 35.427 259.581C35.3201 259.753 35.2434 259.939 35.1969 260.139C35.1318 260.316 35.0481 260.434 34.9458 260.495C34.8482 260.555 34.704 260.569 34.5134 260.537L33.802 260.411C33.8671 259.946 33.995 259.537 34.1856 259.184C34.3763 258.83 34.6157 258.535 34.904 258.298C35.1922 258.056 35.5224 257.875 35.8943 257.754C36.2709 257.633 36.6754 257.573 37.1078 257.573C37.5449 257.573 37.9471 257.638 38.3144 257.768C38.6863 257.893 39.0072 258.077 39.2768 258.319C39.5465 258.561 39.7581 258.856 39.9115 259.205C40.0649 259.549 40.1416 259.939 40.1416 260.376C40.1416 260.748 40.0859 261.095 39.9743 261.415C39.8673 261.732 39.7185 262.034 39.5279 262.322C39.3419 262.61 39.1234 262.892 38.8723 263.166C38.6259 263.436 38.3632 263.71 38.0842 263.989L35.5456 266.583C35.7409 266.532 35.9362 266.49 36.1314 266.458C36.3314 266.425 36.5197 266.409 36.6964 266.409H39.8557ZM43.1277 260.641C43.1277 261.26 43.2951 261.736 43.6299 262.071C43.9646 262.406 44.4296 262.573 45.0247 262.573C45.3455 262.573 45.6292 262.522 45.8756 262.42C46.122 262.313 46.3289 262.173 46.4963 262.001C46.6683 261.825 46.7985 261.622 46.8869 261.394C46.9752 261.162 47.0194 260.92 47.0194 260.669C47.0194 260.367 46.9705 260.095 46.8729 259.853C46.7799 259.607 46.6474 259.4 46.4754 259.232C46.3033 259.06 46.0988 258.93 45.8616 258.842C45.6292 258.749 45.3711 258.702 45.0875 258.702C44.7946 258.702 44.5272 258.751 44.2854 258.849C44.0437 258.942 43.8368 259.074 43.6647 259.246C43.4927 259.418 43.3602 259.623 43.2672 259.86C43.1742 260.097 43.1277 260.358 43.1277 260.641ZM45.8756 263.738C46.0569 263.501 46.2266 263.268 46.3847 263.04C46.1336 263.231 45.8523 263.375 45.5408 263.473C45.234 263.57 44.9062 263.619 44.5574 263.619C44.1901 263.619 43.8368 263.557 43.4974 263.431C43.1626 263.305 42.865 263.122 42.6047 262.88C42.3489 262.634 42.1443 262.331 41.9909 261.973C41.8375 261.615 41.7608 261.204 41.7608 260.739C41.7608 260.302 41.8421 259.89 42.0049 259.504C42.1676 259.119 42.3954 258.784 42.6883 258.5C42.9859 258.212 43.3393 257.986 43.7484 257.824C44.1622 257.656 44.6156 257.573 45.1084 257.573C45.5966 257.573 46.0383 257.652 46.4335 257.81C46.8334 257.968 47.1728 258.191 47.4518 258.479C47.7307 258.763 47.9469 259.105 48.1004 259.504C48.2538 259.904 48.3305 260.344 48.3305 260.823C48.3305 261.116 48.3026 261.394 48.2468 261.66C48.1957 261.925 48.119 262.183 48.0167 262.434C47.919 262.685 47.7982 262.933 47.654 263.18C47.5145 263.422 47.3541 263.67 47.1728 263.926L44.7667 267.378C44.7016 267.471 44.6063 267.548 44.4807 267.609C44.3598 267.669 44.2204 267.699 44.0623 267.699H42.8139L45.8756 263.738Z" fill="black"/>
<path d="M74.1408 260.411C74.2105 259.946 74.3407 259.537 74.5313 259.184C74.7219 258.83 74.9614 258.535 75.2497 258.298C75.5379 258.056 75.8681 257.875 76.24 257.754C76.6166 257.633 77.0211 257.573 77.4535 257.573C77.8859 257.573 78.2835 257.635 78.6461 257.761C79.0088 257.882 79.318 258.056 79.5737 258.284C79.8341 258.507 80.0363 258.777 80.1805 259.093C80.3246 259.409 80.3967 259.758 80.3967 260.139C80.3967 260.46 80.3572 260.744 80.2781 260.99C80.1991 261.236 80.0852 261.453 79.9364 261.639C79.7922 261.825 79.6156 261.983 79.4063 262.113C79.1971 262.238 78.9623 262.343 78.7019 262.427C79.3389 262.603 79.8178 262.892 80.1386 263.291C80.4594 263.687 80.6199 264.189 80.6199 264.798C80.6199 265.268 80.5315 265.691 80.3548 266.067C80.1781 266.439 79.9364 266.755 79.6295 267.016C79.3226 267.271 78.9646 267.469 78.5555 267.609C78.151 267.743 77.7186 267.811 77.2583 267.811C76.7329 267.811 76.2819 267.748 75.9052 267.623C75.5286 267.492 75.2078 267.313 74.9428 267.085C74.6778 266.853 74.4569 266.576 74.2802 266.256C74.1082 265.93 73.9618 265.574 73.8409 265.188L74.4337 264.937C74.5871 264.872 74.7359 264.854 74.88 264.882C75.0242 264.91 75.1288 264.991 75.1939 265.126C75.2636 265.265 75.3427 265.423 75.431 265.6C75.524 265.772 75.6472 265.937 75.8006 266.095C75.9541 266.249 76.1447 266.379 76.3725 266.486C76.605 266.593 76.8956 266.646 77.2443 266.646C77.5791 266.646 77.872 266.593 78.1231 266.486C78.3741 266.374 78.5834 266.232 78.7507 266.06C78.9181 265.884 79.0437 265.688 79.1274 265.474C79.211 265.261 79.2529 265.049 79.2529 264.84C79.2529 264.579 79.2203 264.34 79.1553 264.121C79.0902 263.903 78.9646 263.717 78.7786 263.563C78.5973 263.405 78.3439 263.282 78.0184 263.194C77.693 263.106 77.2699 263.061 76.7491 263.061V262.071C77.1769 262.066 77.5372 262.022 77.8301 261.938C78.1277 261.855 78.3672 261.739 78.5485 261.59C78.7298 261.441 78.86 261.264 78.9391 261.06C79.0227 260.855 79.0646 260.627 79.0646 260.376C79.0646 260.102 79.0227 259.862 78.9391 259.658C78.8554 259.453 78.7368 259.284 78.5834 259.149C78.4346 259.009 78.2556 258.907 78.0463 258.842C77.8418 258.772 77.6186 258.737 77.3768 258.737C77.135 258.737 76.9119 258.772 76.7073 258.842C76.5027 258.912 76.3214 259.009 76.1633 259.135C76.0052 259.26 75.8727 259.409 75.7658 259.581C75.6588 259.753 75.5821 259.939 75.5356 260.139C75.4705 260.316 75.3868 260.434 75.2845 260.495C75.1869 260.555 75.0451 260.569 74.8591 260.537L74.1408 260.411ZM89.0528 262.692C89.0528 263.566 88.9575 264.324 88.7669 264.965C88.5809 265.607 88.3229 266.139 87.9927 266.562C87.6673 266.981 87.2814 267.292 86.835 267.497C86.3933 267.702 85.9167 267.804 85.4053 267.804C84.8938 267.804 84.4149 267.702 83.9686 267.497C83.5269 267.292 83.1433 266.981 82.8178 266.562C82.4924 266.139 82.2366 265.607 82.0507 264.965C81.8647 264.324 81.7717 263.566 81.7717 262.692C81.7717 261.818 81.8647 261.06 82.0507 260.418C82.2366 259.772 82.4924 259.239 82.8178 258.821C83.1433 258.398 83.5269 258.084 83.9686 257.879C84.4149 257.675 84.8938 257.573 85.4053 257.573C85.9167 257.573 86.3933 257.675 86.835 257.879C87.2814 258.084 87.6673 258.398 87.9927 258.821C88.3229 259.239 88.5809 259.772 88.7669 260.418C88.9575 261.06 89.0528 261.818 89.0528 262.692ZM87.644 262.692C87.644 261.938 87.5813 261.308 87.4557 260.802C87.3348 260.295 87.1698 259.888 86.9606 259.581C86.756 259.27 86.5188 259.049 86.2492 258.919C85.9795 258.788 85.6982 258.723 85.4053 258.723C85.1124 258.723 84.8311 258.788 84.5614 258.919C84.2917 259.049 84.0523 259.27 83.8431 259.581C83.6385 259.888 83.4757 260.295 83.3549 260.802C83.234 261.308 83.1735 261.938 83.1735 262.692C83.1735 263.445 83.234 264.075 83.3549 264.582C83.4757 265.089 83.6385 265.495 83.8431 265.802C84.0523 266.109 84.2917 266.328 84.5614 266.458C84.8311 266.588 85.1124 266.653 85.4053 266.653C85.6982 266.653 85.9795 266.588 86.2492 266.458C86.5188 266.328 86.756 266.109 86.9606 265.802C87.1698 265.495 87.3348 265.089 87.4557 264.582C87.5813 264.075 87.644 263.445 87.644 262.692Z" fill="black"/>
<path d="M114.436 260.411C114.505 259.946 114.636 259.537 114.826 259.184C115.017 258.83 115.256 258.535 115.545 258.298C115.833 258.056 116.163 257.875 116.535 257.754C116.912 257.633 117.316 257.573 117.748 257.573C118.181 257.573 118.578 257.635 118.941 257.761C119.304 257.882 119.613 258.056 119.869 258.284C120.129 258.507 120.331 258.777 120.475 259.093C120.62 259.409 120.692 259.758 120.692 260.139C120.692 260.46 120.652 260.744 120.573 260.99C120.494 261.236 120.38 261.453 120.231 261.639C120.087 261.825 119.91 261.983 119.701 262.113C119.492 262.238 119.257 262.343 118.997 262.427C119.634 262.603 120.113 262.892 120.434 263.291C120.754 263.687 120.915 264.189 120.915 264.798C120.915 265.268 120.826 265.691 120.65 266.067C120.473 266.439 120.231 266.755 119.924 267.016C119.618 267.271 119.26 267.469 118.85 267.609C118.446 267.743 118.013 267.811 117.553 267.811C117.028 267.811 116.577 267.748 116.2 267.623C115.824 267.492 115.503 267.313 115.238 267.085C114.973 266.853 114.752 266.576 114.575 266.256C114.403 265.93 114.257 265.574 114.136 265.188L114.729 264.937C114.882 264.872 115.031 264.854 115.175 264.882C115.319 264.91 115.424 264.991 115.489 265.126C115.559 265.265 115.638 265.423 115.726 265.6C115.819 265.772 115.942 265.937 116.096 266.095C116.249 266.249 116.44 266.379 116.667 266.486C116.9 266.593 117.191 266.646 117.539 266.646C117.874 266.646 118.167 266.593 118.418 266.486C118.669 266.374 118.878 266.232 119.046 266.06C119.213 265.884 119.339 265.688 119.422 265.474C119.506 265.261 119.548 265.049 119.548 264.84C119.548 264.579 119.515 264.34 119.45 264.121C119.385 263.903 119.26 263.717 119.074 263.563C118.892 263.405 118.639 263.282 118.313 263.194C117.988 263.106 117.565 263.061 117.044 263.061V262.071C117.472 262.066 117.832 262.022 118.125 261.938C118.423 261.855 118.662 261.739 118.843 261.59C119.025 261.441 119.155 261.264 119.234 261.06C119.318 260.855 119.36 260.627 119.36 260.376C119.36 260.102 119.318 259.862 119.234 259.658C119.15 259.453 119.032 259.284 118.878 259.149C118.73 259.009 118.55 258.907 118.341 258.842C118.137 258.772 117.914 258.737 117.672 258.737C117.43 258.737 117.207 258.772 117.002 258.842C116.798 258.912 116.616 259.009 116.458 259.135C116.3 259.26 116.168 259.409 116.061 259.581C115.954 259.753 115.877 259.939 115.831 260.139C115.765 260.316 115.682 260.434 115.579 260.495C115.482 260.555 115.34 260.569 115.154 260.537L114.436 260.411ZM128.79 266.66V267.699H123.378V266.66H125.498V260.097C125.498 259.888 125.505 259.672 125.519 259.449L123.817 260.892C123.752 260.943 123.687 260.976 123.622 260.99C123.557 261.004 123.494 261.006 123.434 260.997C123.378 260.988 123.327 260.969 123.28 260.941C123.238 260.909 123.203 260.876 123.176 260.844L122.75 260.251L125.749 257.663H126.858V266.66H128.79Z" fill="black"/>
</g>
<rect x="0.5" y="0.5" width="323.691" height="285.72" rx="10.3489" stroke="black"/>
<defs>
<clipPath id="clip0_214_1051">
<rect width="324.691" height="286.72" rx="10.8489" fill="white"/>
</clipPath>
</defs>
</svg>
