<svg width="73" height="73" viewBox="0 0 73 73" fill="none" xmlns="http://www.w3.org/2000/svg">
<path d="M4.5625 36.5C4.5625 42.8166 6.4356 48.9914 9.94494 54.2435C13.4543 59.4956 18.4422 63.5891 24.278 66.0064C30.1139 68.4237 36.5354 69.0561 42.7307 67.8238C48.926 66.5915 54.6167 63.5498 59.0832 59.0832C63.5498 54.6167 66.5915 48.926 67.8238 42.7307C69.0561 36.5354 68.4237 30.1139 66.0064 24.278C63.5891 18.4422 59.4956 13.4543 54.2435 9.94494C48.9914 6.4356 42.8166 4.5625 36.5 4.5625C28.0296 4.5625 19.9062 7.92733 13.9168 13.9168C7.92733 19.9062 4.5625 28.0296 4.5625 36.5ZM18.25 34.2188H45.9672L33.2378 21.4278L36.5 18.25L54.75 36.5L36.5 54.75L33.2378 51.4947L45.9672 38.7812H18.25V34.2188Z" fill="black"/>
</svg>
