<svg width="29" height="29" viewBox="0 0 29 29" fill="none" xmlns="http://www.w3.org/2000/svg">
<g id="ri:instagram-fill">
<path id="Vector" d="M15.7422 2.41946C16.624 2.41607 17.5057 2.42493 18.3873 2.44604L18.6217 2.4545C18.8923 2.46416 19.1594 2.47625 19.482 2.49075C20.7677 2.55116 21.6449 2.75416 22.4146 3.05262C23.2121 3.35954 23.884 3.77521 24.5558 4.44704C25.1701 5.05073 25.6455 5.78097 25.949 6.587C26.2475 7.35671 26.4505 8.23516 26.5109 9.52083C26.5254 9.84225 26.5375 10.1105 26.5471 10.3812L26.5544 10.6156C26.5758 11.4967 26.5851 12.3781 26.5822 13.2594L26.5834 14.1608V15.7437C26.5864 16.6255 26.5771 17.5073 26.5556 18.3888L26.5483 18.6232C26.5387 18.8939 26.5266 19.1609 26.5121 19.4835C26.4517 20.7692 26.2463 21.6465 25.949 22.4162C25.6465 23.223 25.171 23.9539 24.5558 24.5573C23.9516 25.1716 23.221 25.6469 22.4146 25.9505C21.6449 26.249 20.7677 26.452 19.482 26.5124C19.1594 26.5269 18.8923 26.539 18.6217 26.5487L18.3873 26.5559C17.5057 26.5774 16.624 26.5867 15.7422 26.5837L14.8408 26.5849H13.2591C12.3773 26.5879 11.4956 26.5786 10.614 26.5571L10.3796 26.5499C10.0928 26.5395 9.806 26.5274 9.5193 26.5136C8.23363 26.4532 7.35638 26.2478 6.58546 25.9505C5.77912 25.6477 5.04875 25.1722 4.4455 24.5573C3.83052 23.9535 3.35465 23.2228 3.05109 22.4162C2.75263 21.6465 2.54963 20.7692 2.48921 19.4835C2.47576 19.1968 2.46367 18.91 2.45296 18.6232L2.44692 18.3888C2.42464 17.5073 2.41457 16.6255 2.41671 15.7437V13.2594C2.41334 12.3781 2.4222 11.4967 2.4433 10.6156L2.45175 10.3812C2.46142 10.1105 2.4735 9.84225 2.488 9.52083C2.54842 8.23396 2.75142 7.35791 3.04988 6.587C3.35362 5.78058 3.83042 5.05053 4.44671 4.44825C5.04954 3.83291 5.77946 3.35661 6.58546 3.05262C7.35638 2.75416 8.23242 2.55116 9.5193 2.49075L10.3796 2.4545L10.614 2.44846C11.4951 2.42619 12.3765 2.41612 13.2579 2.41825L15.7422 2.41946ZM14.5 8.46112C13.6995 8.4498 12.9048 8.59769 12.1619 8.8962C11.419 9.19472 10.7429 9.63789 10.1728 10.2C9.60272 10.7621 9.15003 11.4319 8.84104 12.1704C8.53206 12.909 8.37294 13.7016 8.37294 14.5022C8.37294 15.3028 8.53206 16.0954 8.84104 16.834C9.15003 17.5725 9.60272 18.2423 10.1728 18.8044C10.7429 19.3665 11.419 19.8097 12.1619 20.1082C12.9048 20.4067 13.6995 20.5546 14.5 20.5432C16.1024 20.5432 17.6391 19.9067 18.7721 18.7737C19.9052 17.6407 20.5417 16.1039 20.5417 14.5016C20.5417 12.8992 19.9052 11.3625 18.7721 10.2295C17.6391 9.09644 16.1024 8.46112 14.5 8.46112ZM14.5 10.8778C14.9816 10.8689 15.46 10.9561 15.9075 11.1342C16.355 11.3123 16.7625 11.5778 17.1062 11.9152C17.4499 12.2526 17.7229 12.655 17.9093 13.0991C18.0957 13.5432 18.1917 14.02 18.1918 14.5016C18.1919 14.9832 18.096 15.46 17.9098 15.9041C17.7235 16.3483 17.4506 16.7508 17.107 17.0883C16.7634 17.4258 16.356 17.6914 15.9086 17.8697C15.4612 18.048 14.9828 18.1353 14.5013 18.1266C13.5398 18.1266 12.6178 17.7447 11.938 17.0648C11.2582 16.385 10.8763 15.463 10.8763 14.5016C10.8763 13.5402 11.2582 12.6181 11.938 11.9383C12.6178 11.2585 13.5398 10.8766 14.5013 10.8766L14.5 10.8778ZM20.8438 6.64862C20.454 6.66422 20.0853 6.83005 19.815 7.11138C19.5447 7.3927 19.3938 7.7677 19.3938 8.15783C19.3938 8.54796 19.5447 8.92296 19.815 9.20428C20.0853 9.48561 20.454 9.65144 20.8438 9.66704C21.2444 9.66704 21.6286 9.50791 21.9118 9.22465C22.1951 8.94139 22.3542 8.55721 22.3542 8.15662C22.3542 7.75603 22.1951 7.37185 21.9118 7.0886C21.6286 6.80534 21.2444 6.64621 20.8438 6.64621V6.64862Z" fill="white"/>
</g>
</svg>
