<svg width="29" height="29" viewBox="0 0 29 29" fill="none" xmlns="http://www.w3.org/2000/svg">
<g id="ic:round-mail">
<path id="Vector" d="M24.1665 4.83203H4.83317C3.504 4.83203 2.4165 5.91953 2.4165 7.2487V21.7487C2.4165 23.0779 3.504 24.1654 4.83317 24.1654H24.1665C25.4957 24.1654 26.5832 23.0779 26.5832 21.7487V7.2487C26.5832 5.91953 25.4957 4.83203 24.1665 4.83203ZM23.6832 9.96745L15.7807 14.9095C14.9953 15.4049 14.0044 15.4049 13.219 14.9095L5.3165 9.96745C5.19534 9.89943 5.08924 9.80754 5.00462 9.69733C4.92 9.58712 4.85862 9.46089 4.8242 9.32627C4.78978 9.19165 4.78303 9.05145 4.80436 8.91415C4.82569 8.77685 4.87466 8.64531 4.9483 8.52748C5.02194 8.40965 5.11873 8.30799 5.2328 8.22865C5.34687 8.14931 5.47585 8.09394 5.61194 8.06589C5.74802 8.03784 5.88839 8.0377 6.02453 8.06547C6.16068 8.09324 6.28977 8.14834 6.404 8.22745L14.4998 13.2904L22.5957 8.22745C22.7099 8.14834 22.839 8.09324 22.9751 8.06547C23.1113 8.0377 23.2516 8.03784 23.3877 8.06589C23.5238 8.09394 23.6528 8.14931 23.7669 8.22865C23.8809 8.30799 23.9777 8.40965 24.0514 8.52748C24.125 8.64531 24.174 8.77685 24.1953 8.91415C24.2166 9.05145 24.2099 9.19165 24.1755 9.32627C24.1411 9.46089 24.0797 9.58712 23.9951 9.69733C23.9104 9.80754 23.8043 9.89943 23.6832 9.96745Z" fill="white"/>
</g>
</svg>
